<?xml version="1.0" encoding="utf-8"?>
<!-- Generator: Adobe Illustrator 27.5.0, SVG Export Plug-In . SVG Version: 6.00 Build 0)  -->
<svg version="1.1" id="Layer_1" xmlns="http://www.w3.org/2000/svg" xmlns:xlink="http://www.w3.org/1999/xlink" x="0px" y="0px"
	 viewBox="0 0 900 900" style="enable-background:new 0 0 900 900;" xml:space="preserve">
<g>
	<ellipse style="fill:#AAB0BA;" cx="446.82" cy="830.496" rx="138.152" ry="14.322"/>
	<path style="fill:#1F72A0;" d="M478.048,798.791c0.485-2.548,0.69-4.175,1.704-5.805c1.014-1.631,2.367-3.874,10.972-3.594
		c8.605,0.28,7.831,5.048,7.445,6.169c-0.387,1.122-1.644,4.3-1.644,4.3l-4.447,3.926l-4.351,1.309c0,0-2.61,0.094-3.384-0.467
		C483.57,804.067,478.048,798.791,478.048,798.791z"/>
	<polygon style="fill:#FFDD7A;" points="484.344,779.577 484.73,800.889 490.531,808.832 512.962,806.128 523.79,796.839 
		521.271,774.342 	"/>
	<path style="fill:#0977A8;" d="M529.689,552.844h-48.362h-67.756h-48.362c0,0-0.706,157.561-4.639,231.889h59.539l16.873-161.884
		h20.935l16.873,161.884h59.539C530.395,710.404,529.689,552.844,529.689,552.844z"/>
	<g>
		<path style="fill:#2587A5;" d="M533.272,761.158c0,0,0.001,0.014,0.001,0.015C533.273,761.164,533.272,761.158,533.272,761.158z"
			/>
		<path style="opacity:0.61;fill:#04517C;" d="M533.273,761.174c0.002,0.115-50.797,7.544-51.088-3.089
			c-1.181-43.206-6.526-134.065-6.526-149.382c0,0-0.179,0.047-0.523,0.129c0-0.04-0.001-0.09-0.001-0.129
			c0,0-11.379,5.982-27.089,5.982c-0.188,0-0.36,0.005-0.535,0.01c-0.175-0.004-0.346-0.01-0.534-0.01
			c-15.71,0-23.995-5.982-23.995-5.982c0,0.039-3.095,0.089-3.095,0.129c-0.343-0.082-0.523-0.129-0.523-0.129
			c0,15.317-3.982,106.938-6.332,150.097c-0.412,7.559-51.285,2.488-51.283,2.374c-0.005,0.086-0.173,3.037-0.199,3.556
			c-0.525,10.201,46.671,16.78,46.47,20.002h0.524h11.565h0.124l3.102-29.522l13.771-132.362h20.811l13.771,132.362l3.102,29.522
			h0.124h11.565h0.524c-0.201-3.222,46.995-9.801,46.47-20.002C533.445,764.211,533.278,761.26,533.273,761.174z"/>
		<path style="fill:#2587A5;" d="M361.749,761.174c0-0.002,0.001-0.015,0.001-0.015S361.749,761.164,361.749,761.174z"/>
	</g>
	<path style="fill:#CC3636;" d="M413.571,552.844h-48.362c0,0-0.042,13.405-0.162,27.945l0,0c6.37,0,151.528,0,164.805,0
		c-0.12-14.54-0.162-27.945-0.162-27.945h-48.362H413.571z"/>
	<path style="fill:#F73C3C;" d="M484.344,791.587c0-1.95-4.122,0.581-4.591,1.398c-2.76,4.795-2.083,15.927-2.083,15.927
		l3.205,4.594c-7.319-5.692,37.337,24.802,38.294,25.064c25.304,6.928,43.454-6.822,43.3-10.358
		c-0.137-3.153-0.712-5.773-2.277-7.865c-2.152-2.876-8.856-6.686-11.851-8.957c-7.326-5.555-4.611-4.088-10.269-11.475
		c-3.693-4.821-7.789-7.622-17.906-6.781c-11.215,0.932-15.469,5.793-20.004,9.259c-2.383,1.822-5.432,3.247-9.083,1.554
		c-2.246-1.042-4.885-2.661-5.458-4.186C484.835,797.665,484.344,795.466,484.344,791.587z"/>
	<path style="fill:#3D3437;" d="M534.1,836.137c-25.014-1.093-45.882-18.494-56.429-27.225c0,0-0.967,9.739,2.003,12.352
		c8.728,7.678,12.203,9.925,23.314,16.409c14.005,8.172,26.223,8.792,36.557,8.299c6.844-0.327,19.791-2.535,22.907-8.818
		c1.024-2.064,0.593-7.549-0.225-10.999C562.053,833.036,543.682,836.556,534.1,836.137z"/>
	<path style="fill:none;stroke:#FFFFFF;stroke-width:4.9265;stroke-linecap:round;stroke-miterlimit:10;" d="M543.284,808.106
		c-3.877-3.478-18.09-9.086-33.656,0.806"/>
	<path style="fill:none;stroke:#FFFFFF;stroke-width:4.9265;stroke-linecap:round;stroke-miterlimit:10;" d="M549.59,812.564
		c-4.071-2.73-17.048-7.842-32.109,2.302"/>
	<path style="fill:#1F72A0;" d="M416.762,798.791c-0.485-2.548-0.69-4.175-1.704-5.805c-1.014-1.631-2.367-3.874-10.972-3.594
		c-8.605,0.28-7.831,5.048-7.445,6.169s1.644,4.3,1.644,4.3l4.448,3.926l4.351,1.309c0,0,2.61,0.094,3.384-0.467
		C411.241,804.067,416.762,798.791,416.762,798.791z"/>
	<polygon style="fill:#FFDD7A;" points="410.467,779.577 410.08,800.889 404.28,808.832 381.849,806.128 371.021,796.839 
		373.54,774.342 	"/>
	<path style="fill:#F73C3C;" d="M411.072,791.154c1.767-0.826,3.517,1.013,3.986,1.831c2.76,4.795,2.082,15.927,2.082,15.927
		l-3.205,4.594c7.319-5.692-37.337,24.802-38.294,25.064c-25.304,6.928-43.454-6.822-43.3-10.358
		c0.137-3.153,0.712-5.773,2.277-7.865c2.152-2.876,8.856-6.686,11.851-8.957c7.326-5.555,4.611-4.088,10.269-11.475
		c3.693-4.821,7.789-7.622,17.905-6.781c11.215,0.932,15.469,5.793,20.004,9.259c2.383,1.822,5.432,3.247,9.083,1.554
		c2.246-1.042,3.39-2.661,3.962-4.186C408.48,797.665,408.581,792.319,411.072,791.154z"/>
	<path style="fill:#3D3437;" d="M360.711,836.137c25.014-1.093,45.882-18.494,56.429-27.225c0,0,0.967,9.739-2.003,12.352
		c-8.728,7.678-12.203,9.925-23.314,16.409c-14.005,8.172-26.224,8.792-36.557,8.299c-6.844-0.327-19.791-2.535-22.907-8.818
		c-1.024-2.064-0.593-7.549,0.225-10.999C332.758,833.036,351.129,836.556,360.711,836.137z"/>
	<path style="fill:none;stroke:#FFFFFF;stroke-width:4.9265;stroke-linecap:round;stroke-miterlimit:10;" d="M351.527,808.106
		c3.877-3.478,18.09-9.086,33.656,0.806"/>
	<path style="fill:none;stroke:#FFFFFF;stroke-width:4.9265;stroke-linecap:round;stroke-miterlimit:10;" d="M345.221,812.564
		c4.071-2.73,17.048-7.842,32.109,2.302"/>
	<path style="fill:#118CB7;" d="M474.789,786.547c9.772,5.04,47.131,4.283,59.539,0l-0.856-21.817c0,0-38.15,7.182-60.942-1.496
		L474.789,786.547z"/>
	<path style="fill:#118CB7;" d="M420.045,786.547c-9.772,5.04-47.131,4.283-59.539,0l0.856-21.817c0,0,38.15,7.182,60.942-1.496
		L420.045,786.547z"/>
	<path style="fill:#FFC38D;" d="M632.36,471.5h9.163c4.831,0,14.528-4.521,14.528-11.316c0-26.635-1.799-39.281-1.799-39.281
		c-1.428-10.049-8.075-13.064-12.906-13.064l-2.64,1.087c-4.831,0-8.747,42.664-8.747,47.495v1.982
		C629.959,463.235,627.529,471.5,632.36,471.5z"/>
	<path style="fill:#FFC38D;" d="M268.258,471.5h-9.163c-4.831,0-15.093-4.521-15.093-11.316c0-26.635-0.053-39.281-0.053-39.281
		c1.428-10.049,8.64-13.064,13.471-13.064l2.64,1.087c4.831,0,8.747,42.664,8.747,47.495v1.982
		C268.807,463.235,273.089,471.5,268.258,471.5z"/>
	<g>
		<path style="fill:none;stroke:#FFB287;stroke-width:49.5332;stroke-linecap:round;stroke-miterlimit:10;" d="M399.02,359.492
			c-23.331,20.374-45.978,56.653-51.252,131.678"/>
		<path style="fill:none;stroke:#FFB287;stroke-width:49.5332;stroke-linecap:round;stroke-miterlimit:10;" d="M495.992,359.492
			c23.331,20.374,45.978,56.653,51.252,131.678"/>
		<path style="fill:#281E28;" d="M348.019,200.189c0-4.261-0.093-11.652-0.093-11.652v-5.409c0-39.539,22.181-81.899,72.643-93.212
			c0.457-0.093,0.914-0.198,1.371-0.303c0.012,0,0.019-0.006,0.031-0.006c2.353-0.5,4.773-0.926,7.249-1.291
			c0.037-0.006,0.074-0.006,0.111-0.012c12.727-1.513,20.97,1.618,23.965,5.527v-0.012l0.006,0.012
			c3.532-4.619,14.122-6.836,31.326-1.507c0.272,0.086,0.55,0.167,0.821,0.241c43.219,14.27,61.516,53.648,61.516,90.563v5.409
			c0,0-0.093,7.392-0.093,11.652c0,43.447-49.622,99.626-99.29,99.64C397.823,299.843,348.019,243.019,348.019,200.189z"/>
		<path style="fill:#FF4A42;" d="M506.791,487.77c0,0-0.182-72.719-0.182-106.06c0-33.341-9.849-47.304-9.849-47.304
			s-21.178-9.177-49.315-9.177c-28.138,0-49.216,9.177-49.216,9.177s-9.99,6.507-9.99,42.625v110.74H506.791z"/>
		<path style="fill:#FFFFFF;" d="M445.375,360.745h5.159c15.068,0,27.397-11.647,27.397-30.345v-1.726
			c-8.274-1.856-18.777-3.445-30.486-3.445c-11.25,0-21.37,1.467-29.467,3.228v1.943
			C417.978,349.099,430.306,360.745,445.375,360.745z"/>
		<g>
			<path style="fill:#FF4A42;" d="M522.845,568.266c0-0.038-0.012-0.056-0.036-0.057
				C522.832,568.269,522.845,568.29,522.845,568.266z"/>
		</g>
		<path style="fill:#FFC38D;" d="M473.061,327.373c0,15.661-10.326,25.415-22.946,25.415h-4.321
			c-12.62,0-22.946-9.754-22.946-25.415v-28.149c0-15.661,10.326-28.474,22.946-28.474h4.321c12.62,0,22.946,12.813,22.946,28.474
			V327.373z"/>
		<path style="fill:#F58D6C;" d="M422.848,310.747c0,9.4,15.861,16.341,25.106,16.341c9.245,0,25.106-5.617,25.106-16.341v-46.619
			h-50.213V310.747z"/>
		<path style="fill:#FFC38D;" d="M523.501,240.718c0,39.318-36.194,73.323-75.546,73.323c-39.353,0-75.546-34.005-75.546-73.323
			v-41.733c0-39.318,32.169-59.252,71.488-59.252h8.118c39.318,0,71.488,19.934,71.488,59.252V240.718z"/>
		<g>
			<path style="fill:#F58D6C;" d="M450.417,297.336c5.359-0.518,7.894-2.702,7.269-5.562c-0.271-1.232-5.524,0.693-9.727,0.738
				c-6.115,0.072-10.341-2.406-9.779,0.149C439.091,296.827,444.257,297.92,450.417,297.336z"/>
		</g>
		<path style="fill:#F58D6C;" d="M459.768,245.569c-0.005-1.371-1.134-1.581-4.462-0.361c-1.527,0.56-4.233,1.216-7.351,1.226
			c-3.118-0.01-5.824-0.666-7.352-1.226c-3.329-1.22-4.458-1.01-4.462,0.361c-0.007,1.872,5.758,7.477,11.774,7.509v0.002
			c0.013,0,0.027-0.001,0.04-0.001c0.013,0,0.026,0.001,0.039,0.001v-0.002C454.01,253.046,459.775,247.441,459.768,245.569z"/>
		<path style="fill:#8E2B30;" d="M422.034,264.15c2.79,12.24,13.332,21.347,25.92,21.347c12.587,0,23.129-9.107,25.92-21.347
			c0,0-5.21,2.702-25.388,2.702C428.308,266.851,422.034,264.15,422.034,264.15z"/>
		<path style="fill:#D85365;" d="M465.188,278.891c-4.612-4.284-11.937-5.09-17.233-5.09s-12.621,0.806-17.233,5.09
			c4.645,4.118,10.659,6.606,17.233,6.606C454.529,285.496,460.542,283.009,465.188,278.891z"/>
		<g>
			<path style="fill:none;stroke:#281E28;stroke-width:8;stroke-linecap:round;stroke-miterlimit:10;" d="M467.916,197.888
				c10.015-4.886,20.49-1.596,25.456,3.609"/>
		</g>
		<g>
			<path style="fill:none;stroke:#281E28;stroke-width:8;stroke-linecap:round;stroke-miterlimit:10;" d="M421.637,197.888
				c-7.552-1.578-16.168-1.596-21.133,3.609"/>
		</g>
		<g>
			<path style="fill:none;stroke:#3D2D3D;stroke-width:6.4368;stroke-linecap:round;stroke-miterlimit:10;" d="M424.069,222.348
				c-5.11-5.772-15.789-7.554-22.312-4.521"/>
		</g>
		<g>
			<path style="fill:none;stroke:#3D2D3D;stroke-width:6.4368;stroke-linecap:round;stroke-miterlimit:10;" d="M468.123,222.348
				c5.11-5.772,15.789-7.554,22.312-4.521"/>
		</g>
		<path style="fill:#FFC38D;" d="M352.124,233.734c0-9.714,7.875-17.588,17.588-17.588c9.714,0,7.376,7.875,7.376,17.588
			c0,9.714,2.338,17.588-7.376,17.588C359.999,251.323,352.124,243.448,352.124,233.734z"/>
		<path style="fill:#281E28;" d="M485.765,127.193c0,29.376,4.753,45.978,23.945,59.443c16.9,11.858,13.839,31.739,13.839,31.739
			s12.188-42.939,7.574-54.672C526.507,151.971,485.765,127.193,485.765,127.193z"/>
		<path style="fill:#FFC38D;" d="M543.421,233.734c0,9.714-7.875,17.588-17.588,17.588c-9.714,0-7.376-7.875-7.376-17.588
			c0-9.714-2.338-17.588,7.376-17.588C535.547,216.146,543.421,224.021,543.421,233.734z"/>
		<path style="fill:#281E28;" d="M460.994,125.088c-9.948,0.978-30.146,2.963-48.926,4.809c-7.802,0.767-21.852,4.88-28.024,6.798
			c-26.202,8.142-11.636,78.434-11.636,62.29c0-22.502,48.382-20.304,80.889-20.304c42.545,0,34.321-31.169,34.321-52.987
			C487.617,116.515,460.994,125.088,460.994,125.088z"/>
		<path style="fill:#FF4A42;" d="M405.927,331.644c-29.237,7.953-45.223,40.409-55.899,60.817l33.922,21.295
			c0,0,4.743-8.704,11.057-15.483c4.259-4.572,10.92-6.966,10.92-10.168C405.927,379.33,405.927,331.644,405.927,331.644z"/>
		<path style="fill:#FF4A42;" d="M489.032,331.644c29.237,7.953,45.223,40.409,55.899,60.817l-33.922,21.295
			c0,0-4.743-8.704-11.057-15.483c-4.259-4.572-10.92-6.966-10.92-10.168C489.032,379.33,489.032,331.644,489.032,331.644z"/>
		<path style="fill:#FF4A42;" d="M486.727,499.513c0,8.764-7.171,15.935-15.935,15.935h-46.739c-8.764,0-15.935-7.171-15.935-15.935
			v-109.91c0-8.764,7.171-15.935,15.935-15.935h46.739c8.764,0,15.935,7.171,15.935,15.935V499.513z"/>
		<path style="fill:#FF4A42;" d="M486.727,401.483c0,15.293,0,22.634,0,29.057c0,6.423-0.097,14.988,9.965,14.988
			c10.062,0,10.031,0,10.031,0v47.106h-33.663L486.727,401.483z"/>
		<path style="fill:#E83434;" d="M519.501,519.264c-5.497-20.191-10.428-38.371-12.103-44.548l-14.377,2.729
			c0,0,3.517,33.862,11.929,38.212C510.314,518.432,516.048,519.125,519.501,519.264z"/>
		<path style="fill:#FF4A42;" d="M408.234,401.483c0,15.293,0,22.634,0,29.057c0,6.423,0.097,14.988-9.965,14.988
			c-10.062,0-10.031,0-10.031,0v47.105h33.663L408.234,401.483z"/>
		<path style="fill:#E83434;" d="M375.376,519.264c5.497-20.191,10.557-38.371,12.232-44.548l14.247,2.729
			c0,0-3.518,33.862-11.929,38.212C384.562,518.432,378.829,519.125,375.376,519.264z"/>
		<path style="fill:#FF9676;" d="M386.854,477.451c13.951,2.76,33.574,4.884,60.929,4.884c23.701,0,44.158-1.765,60.387-5.117
			c-0.53-1.955-0.958-3.534-1.265-4.663c-13.747,2.831-32.805,4.925-59.122,4.925c-17.185,0-40.046-0.899-59.639-4.712
			L386.854,477.451z"/>
		<g>
			<g>
				<path style="fill:#E2DBD5;" d="M478.354,387.981c-3.397,0-6.161-2.764-6.161-6.161c0-3.397,2.764-6.161,6.161-6.161
					c3.397,0,6.161,2.764,6.161,6.161C484.515,385.217,481.751,387.981,478.354,387.981z"/>
			</g>
			<g>
				<path style="fill:#E2DBD5;" d="M416.491,387.981c-3.397,0-6.161-2.764-6.161-6.161c0-3.397,2.764-6.161,6.161-6.161
					c3.397,0,6.161,2.764,6.161,6.161C422.652,385.217,419.889,387.981,416.491,387.981z"/>
			</g>
		</g>
		<path style="fill:#FF9676;" d="M398.93,479.156c-0.099,0.706-0.202,1.567-0.323,2.564c-0.967,8.024-3.232,26.815-12.262,33.688
			c-2.915,2.219-6.268,3.005-10.251,2.404l-0.338-0.051l-1.31,4.751l0.917,0.138c1.098,0.166,2.169,0.248,3.215,0.248
			c3.988,0,7.587-1.204,10.73-3.597c10.678-8.126,13.028-27.625,14.157-36.996c0.117-0.973,0.219-1.813,0.311-2.473l0.338-2.423
			l-4.847-0.677L398.93,479.156z"/>
		<path style="fill:#FF9676;" d="M495.9,479.156c0.099,0.706,0.202,1.567,0.323,2.564c0.967,8.024,3.232,26.815,12.262,33.688
			c2.915,2.219,6.268,3.005,10.251,2.404l0.338-0.051l1.31,4.751l-0.917,0.138c-1.098,0.166-2.169,0.248-3.215,0.248
			c-3.988,0-7.587-1.204-10.73-3.597c-10.678-8.126-13.028-27.625-14.157-36.996c-0.117-0.973-0.218-1.813-0.311-2.473l-0.338-2.423
			l4.847-0.677L495.9,479.156z"/>
	</g>
	<path style="fill:#FFD200;" d="M632.372,363.654V556.32c0,2.297-1.865,4.162-4.162,4.162H464.683c-1.315,0-2.55,0.617-3.335,1.673
		l-2.118,2.828c-0.784,1.056-2.019,1.673-3.334,1.673h-16.524c-1.433,0-2.767-0.735-3.526-1.951l-1.426-2.272
		c-0.759-1.216-2.093-1.951-3.526-1.951H266.342c-2.297,0-4.162-1.865-4.162-4.162V363.654c0-2.297,1.865-4.162,4.162-4.162h361.25
		C629.889,359.492,632.372,361.357,632.372,363.654z"/>
	<path style="fill:#CE8400;" d="M632.372,410.658v141.957c0,2.297-1.865,4.162-4.162,4.162H462.213c-1.315,0-2.55,0.617-3.335,1.674
		l-2.118,2.828c-0.784,1.056-2.019,1.673-3.334,1.673h-11.584c-1.433,0-2.767-0.735-3.526-1.951l-1.426-2.272
		c-0.463-0.747-1.142-1.309-1.933-1.636c-0.494-0.204-1.037-0.315-1.593-0.315H283.023l-12.723-7.322v-73.323l-8.12,13.215V416.58
		l16.314-8.552l339.372,2.631H632.372z"/>
	<path style="fill:#CE7000;" d="M442.546,540.697v22.255h-0.704c-1.433,0-2.767-0.735-3.526-1.951l-1.426-2.272
		c-0.463-0.747-1.142-1.309-1.933-1.636v-16.395H442.546z"/>
	<path style="fill:#CE7000;" d="M453.407,540.697v22.255h0.704c1.433,0,2.767-0.735,3.526-1.951l1.426-2.272
		c0.463-0.747,1.142-1.309,1.933-1.636v-16.395H453.407z"/>
	<rect x="270.301" y="511.767" style="fill:#B8B5C0;" width="177.122" height="37.688"/>
	<path style="fill:#F7F7F7;" d="M447.424,364.636v182.656c0,0-8.966-9.479-27.442-11.164c-0.093-0.006-0.191-0.019-0.284-0.025
		c-1.723-0.148-3.514-0.229-5.397-0.229c-3.588,0-14.999,1.284-30.258,2.958c-18.754,2.063-43.318,4.73-66.289,6.36
		c-28.535,2.019-47.467,1.006-47.467,1.006v-182.65c0,0,18.933,1.013,47.467-1.013c22.971-1.63,47.535-4.292,66.289-6.354
		c15.258-1.68,26.67-2.958,30.258-2.958c1.883,0,3.674,0.08,5.397,0.229c0.092,0.006,0.191,0.018,0.284,0.025
		C438.458,355.163,447.424,364.636,447.424,364.636z"/>
	<path style="fill:#F7F7F7;" d="M419.982,353.478v182.65c-0.093-0.006-0.191-0.019-0.284-0.025
		c-1.723-0.148-3.514-0.229-5.397-0.229c-3.588,0-14.999,1.284-30.258,2.958v-182.65c15.258-1.68,26.67-2.958,30.258-2.958
		c1.883,0,3.674,0.08,5.397,0.229C419.791,353.459,419.89,353.471,419.982,353.478z"/>
	<g>
		<path style="fill:none;stroke:#CCCCCC;stroke-width:2;stroke-miterlimit:10;" d="M270.289,385.241c0,0,18.933,1.011,47.465-1.011
			c41.66-2.957,88.543-9.317,96.55-9.317c1.881,0,3.675,0.082,5.392,0.228c18.672,1.614,27.728,11.187,27.728,11.187"/>
		<path style="fill:none;stroke:#CCCCCC;stroke-width:2;stroke-miterlimit:10;" d="M270.289,400.787c0,0,18.933,1.011,47.465-1.011
			c41.66-2.957,88.543-9.317,96.55-9.317c1.881,0,3.675,0.082,5.392,0.228c18.672,1.614,27.728,11.187,27.728,11.187"/>
		<path style="fill:none;stroke:#CCCCCC;stroke-width:2;stroke-miterlimit:10;" d="M270.289,416.334c0,0,18.933,1.011,47.465-1.011
			c41.66-2.957,88.543-9.317,96.55-9.317c1.881,0,3.675,0.082,5.392,0.228c18.672,1.614,27.728,11.187,27.728,11.187"/>
		<path style="fill:none;stroke:#CCCCCC;stroke-width:2;stroke-miterlimit:10;" d="M270.289,431.88c0,0,18.933,1.011,47.465-1.011
			c41.66-2.957,88.543-9.317,96.55-9.317c1.881,0,3.675,0.082,5.392,0.228c18.672,1.614,27.728,11.187,27.728,11.187"/>
		<path style="fill:none;stroke:#CCCCCC;stroke-width:2;stroke-miterlimit:10;" d="M270.289,447.427c0,0,18.933,1.011,47.465-1.011
			c41.66-2.957,88.543-9.317,96.55-9.317c1.881,0,3.675,0.082,5.392,0.228c18.672,1.614,27.728,11.187,27.728,11.187"/>
		<path style="fill:none;stroke:#CCCCCC;stroke-width:2;stroke-miterlimit:10;" d="M270.289,462.973c0,0,18.933,1.011,47.465-1.011
			c41.66-2.957,88.543-9.317,96.55-9.317c1.881,0,3.675,0.081,5.392,0.228c18.672,1.614,27.728,11.187,27.728,11.187"/>
		<path style="fill:none;stroke:#CCCCCC;stroke-width:2;stroke-miterlimit:10;" d="M270.289,478.52c0,0,18.933,1.011,47.465-1.011
			c41.66-2.957,88.543-9.317,96.55-9.317c1.881,0,3.675,0.082,5.392,0.228c18.672,1.614,27.728,11.187,27.728,11.187"/>
		<path style="fill:none;stroke:#CCCCCC;stroke-width:2;stroke-miterlimit:10;" d="M270.289,494.066c0,0,18.933,1.011,47.465-1.011
			c41.66-2.957,88.543-9.317,96.55-9.317c1.881,0,3.675,0.081,5.392,0.228c18.672,1.614,27.728,11.187,27.728,11.187"/>
		<path style="fill:none;stroke:#CCCCCC;stroke-width:2;stroke-miterlimit:10;" d="M270.289,509.612c0,0,18.933,1.011,47.465-1.011
			c41.66-2.957,88.543-9.317,96.55-9.317c1.881,0,3.675,0.082,5.392,0.228c18.672,1.614,27.728,11.187,27.728,11.187"/>
		<path style="fill:none;stroke:#CCCCCC;stroke-width:2;stroke-miterlimit:10;" d="M270.289,525.159c0,0,18.933,1.011,47.465-1.011
			c41.66-2.957,88.543-9.317,96.55-9.317c1.881,0,3.675,0.082,5.392,0.228c18.672,1.614,27.728,11.187,27.728,11.187"/>
	</g>
	<path style="fill:#F7F7F7;stroke:#FF644A;stroke-width:3;stroke-miterlimit:10;" d="M289.693,546.407V363.782V546.407z"/>
	<rect x="447.514" y="511.767" style="fill:#B8B5C0;" width="177.122" height="37.688"/>
	<path style="fill:#EBE7EC;" d="M624.653,363.549v182.65c0,0-14.307,0.766-36.791-0.364c-3.378-0.167-6.947-0.377-10.677-0.642
		c-0.451-0.031-0.908-0.062-1.365-0.099l-0.037-0.006c-41.298-2.995-87.234-9.213-95.15-9.213h-0.161
		c-22.211,0.056-32.956,11.418-32.956,11.418V364.636c0,0,10.745-11.362,32.956-11.411h0.161c8.009,0,54.896,6.36,96.552,9.312
		C605.72,364.562,624.653,363.549,624.653,363.549z"/>
	<polygon style="fill:#9895A5;" points="270.288,471.698 281.829,454.136 276.883,434.061 289.696,428.177 278.569,425.33 
		285.09,412.35 270.418,409.225 270.288,414.548 	"/>
	<path style="fill:none;stroke:#FFC38D;stroke-width:20.2465;stroke-linecap:round;stroke-miterlimit:10;" d="M253.439,415.474
		c0,0,15.764-6.251,18.616-6.251h12.187"/>
	<path style="fill:none;stroke:#FFC38D;stroke-width:20.2465;stroke-linecap:round;stroke-miterlimit:10;" d="M253.983,430.756
		l13.715-4.026c1.717-0.751,3.571-1.138,5.444-1.138h14.361"/>
	<g>
		<path style="fill:#FFCFA4;" d="M647.827,374.473l-0.031,0.018l-6.132,3.118l-6.163-3.137l0.55-1.426l0.358-0.926v-0.006
			l0.426-1.099l3.526-9.158l2.618-6.786l1.797,7.2c0.012,0.055,0.031,0.111,0.043,0.167c0.006,0.031,0.018,0.062,0.025,0.086
			l2.291,9.182l0.599,2.396L647.827,374.473z"/>
		<path style="fill:#FFAA00;" d="M647.815,375.399l-1.859,22.378c0,0.025-0.006,0.056-0.006,0.08l-0.809,9.769
			c-0.241,3.242-2.951,5.712-6.15,5.712c-0.154,0-0.309-0.006-0.469-0.019c-3.402-0.253-5.953-3.217-5.693-6.62l2.235-26.966
			l0.438-5.261c0.012-0.13,0.025-0.253,0.037-0.37c0.068-0.482,0.185-0.895,0.352-1.235c0.136-0.296,0.309-0.543,0.519-0.747v-0.006
			c0.117-0.117,0.247-0.229,0.389-0.321c0.049-0.037,0.105-0.074,0.16-0.105c0.84-0.494,2.001-0.605,3.353-0.568
			c0,0,0.006,0,0.012,0c0.445,0.012,0.908,0.037,1.383,0.074c0.691,0.056,1.371,0.117,2,0.216c1.253,0.191,2.34,0.519,3.082,1.149
			c0.463,0.383,0.79,0.883,0.939,1.544c0.031,0.123,0.055,0.253,0.068,0.389C647.834,374.769,647.84,375.072,647.815,375.399z"/>
		<path style="fill:#ED8A2F;" d="M645.956,397.777c0,0.025-0.006,0.056-0.006,0.08l-0.809,9.769
			c-0.241,3.242-2.951,5.712-6.15,5.712c-0.154,0-0.309-0.006-0.469-0.019c-3.402-0.253-5.953-3.217-5.693-6.62l2.235-26.966
			c0.346,0,0.346,0,0.346,0l4.113,0.006C639.522,379.74,646.778,387.922,645.956,397.777z"/>
	</g>
	<path style="fill:#F7F7F7;" d="M480.473,353.222v182.652c-22.21,0.054-32.957,11.415-32.957,11.415V364.637
		C447.516,364.637,458.262,353.276,480.473,353.222z"/>
	<g>
		<path style="fill:none;stroke:#CCCCCC;stroke-width:2;stroke-miterlimit:10;" d="M625.122,385.241c0,0-18.933,1.011-47.465-1.011
			c-41.66-2.957-88.543-9.317-96.55-9.317c-1.881,0-3.675,0.082-5.392,0.228c-18.672,1.614-28.345,11.187-28.345,11.187"/>
		<path style="fill:none;stroke:#CCCCCC;stroke-width:2;stroke-miterlimit:10;" d="M625.122,400.787c0,0-18.933,1.011-47.465-1.011
			c-41.66-2.957-88.543-9.317-96.55-9.317c-1.881,0-3.675,0.082-5.392,0.228c-18.672,1.614-28.345,11.187-28.345,11.187"/>
		<path style="fill:none;stroke:#CCCCCC;stroke-width:2;stroke-miterlimit:10;" d="M625.122,416.334c0,0-18.933,1.011-47.465-1.011
			c-41.66-2.957-88.543-9.317-96.55-9.317c-1.881,0-3.675,0.082-5.392,0.228c-18.672,1.614-28.345,11.187-28.345,11.187"/>
		<path style="fill:none;stroke:#CCCCCC;stroke-width:2;stroke-miterlimit:10;" d="M625.122,431.88c0,0-18.933,1.011-47.465-1.011
			c-41.66-2.957-88.543-9.317-96.55-9.317c-1.881,0-3.675,0.082-5.392,0.228c-18.672,1.614-28.345,11.187-28.345,11.187"/>
		<path style="fill:none;stroke:#CCCCCC;stroke-width:2;stroke-miterlimit:10;" d="M625.122,447.427c0,0-18.933,1.011-47.465-1.011
			c-41.66-2.957-88.543-9.317-96.55-9.317c-1.881,0-3.675,0.082-5.392,0.228c-18.672,1.614-28.345,11.187-28.345,11.187"/>
		<path style="fill:none;stroke:#CCCCCC;stroke-width:2;stroke-miterlimit:10;" d="M625.122,462.973c0,0-18.933,1.011-47.465-1.011
			c-41.66-2.957-88.543-9.317-96.55-9.317c-1.881,0-3.675,0.081-5.392,0.228c-18.672,1.614-28.345,11.187-28.345,11.187"/>
		<path style="fill:none;stroke:#CCCCCC;stroke-width:2;stroke-miterlimit:10;" d="M625.122,478.52c0,0-18.933,1.011-47.465-1.011
			c-41.66-2.957-88.543-9.317-96.55-9.317c-1.881,0-3.675,0.082-5.392,0.228c-18.672,1.614-28.345,11.187-28.345,11.187"/>
		<path style="fill:none;stroke:#CCCCCC;stroke-width:2;stroke-miterlimit:10;" d="M625.122,494.066c0,0-18.933,1.011-47.465-1.011
			c-41.66-2.957-88.543-9.317-96.55-9.317c-1.881,0-3.675,0.081-5.392,0.228c-18.672,1.614-28.345,11.187-28.345,11.187"/>
		<path style="fill:none;stroke:#CCCCCC;stroke-width:2;stroke-miterlimit:10;" d="M625.122,509.612c0,0-18.933,1.011-47.465-1.011
			c-41.66-2.957-88.543-9.317-96.55-9.317c-1.881,0-3.675,0.082-5.392,0.228c-18.672,1.614-28.345,11.187-28.345,11.187"/>
		<path style="fill:none;stroke:#CCCCCC;stroke-width:2;stroke-miterlimit:10;" d="M625.122,525.159c0,0-18.933,1.011-47.465-1.011
			c-41.66-2.957-88.543-9.317-96.55-9.317c-1.881,0-3.675,0.082-5.392,0.228c-18.672,1.614-28.345,11.187-28.345,11.187"/>
	</g>
	<g>
		<path style="fill:#ED8A2F;" d="M633.769,481.397c-0.155,0-0.312-0.006-0.47-0.018c-3.401-0.256-6.17,2.231-5.914-1.17
			l5.031-66.917c0.256-3.401,3.218-5.954,6.621-5.694c3.401,0.256,5.95,3.219,5.694,6.621l-4.714,61.505
			C639.773,478.967,636.968,481.397,633.769,481.397z"/>
		<path style="fill:#FFBA1E;" d="M634.85,461.938c-0.023,1.827-0.046,3.654-0.07,5.48c-0.03,2.385,3.675,2.386,3.705,0
			c0.023-1.827,0.047-3.654,0.07-5.48C638.586,459.553,634.881,459.552,634.85,461.938z"/>
		<path style="fill:#8289AB;" d="M640.655,467.405l-0.537,6.847v0.049l-0.058,0.379c-0.025,0.185-0.062,0.364-0.111,0.537
			c-0.062,0.21-0.136,0.414-0.235,0.593v0.006c-0.722,0.346-1.605,0.482-2.717,0.537c-0.451,0.025-0.945,0.031-1.482,0.037h-0.531
			c-0.167,0-3.476-1.241-3.65-1.254c-0.037,0-0.08-0.006-0.117-0.012c-0.969-0.08-1.618-0.568-2.032-1.278
			c-0.846-1.439-0.766-3.785-0.648-5.514c0.031-0.414,0.061-0.79,0.08-1.112h-0.012c0-0.031,0.012-0.062,0.018-0.093v-0.049h0.006
			c-0.086-0.55,0.204-0.951,0.741-1.223c0.414-0.216,0.982-0.364,1.643-0.445c1.013-0.13,2.254-0.105,3.495,0.012
			c0.074,0.006,0.148,0.019,0.222,0.025c0.352,0.037,0.704,0.087,1.05,0.136c0.963,0.142,1.89,0.346,2.667,0.58
			C639.602,466.505,640.513,467.003,640.655,467.405z"/>
		<path style="fill:#BF2C41;" d="M640.263,472.254l-0.482,6.879v0.049l-0.031,0.432c-0.025,0.185-0.062,0.364-0.111,0.537
			c-0.062,0.21-0.136,0.414-0.235,0.593v0.006c-0.722,0.346-1.605,0.482-2.717,0.537c-0.451,0.025-0.945,0.031-1.482,0.037h-0.531
			c-0.167,0-3.477-1.241-3.649-1.254c-0.037,0-0.08-0.006-0.117-0.012c-0.969-0.08-1.618-0.568-2.032-1.278
			c-0.846-1.439-0.766-3.785-0.648-5.514c0.031-0.414,0.062-0.79,0.08-1.111h-0.012c0-0.031,0.012-0.062,0.018-0.093v-0.049h0.006
			c-0.086-0.55,0.204-0.951,0.741-1.223c0.414-0.216,0.982-0.364,1.643-0.445c1.013-0.13,2.254-0.105,3.495,0.012
			c0.16,0.018,0.321,0.037,0.482,0.056c0.266,0.031,0.531,0.068,0.791,0.105c1.056,0.161,2.062,0.383,2.877,0.642
			C639.399,471.488,640.133,471.877,640.263,472.254z"/>
		<path style="fill:#BF2C41;" d="M638.577,481.59c-0.049,0.025-0.099,0.043-0.148,0.056c-1.142,0.364-2.945,0.414-4.934,0.352
			c-0.154-0.006-0.309-0.012-0.469-0.018c-3.328-0.204-5.817-0.729-5.638-2.069h-0.012c0-0.018,0.012-0.031,0.018-0.049v-0.031
			h0.006c0.154-0.513,2.525,0.306,5.947,0.678c3.042,0.33,5.54-0.08,6.344-0.563C639.793,479.884,639.475,481.48,638.577,481.59z"/>
	</g>
	<polygon style="fill:#9895A5;" points="611.828,412.349 618.351,425.331 607.226,428.174 620.038,434.063 615.089,454.135 
		624.651,471.5 624.651,409.223 	"/>
	<g>
		<g>
			<g>
				<path style="fill:#FFFFFF;stroke:#494242;stroke-width:12.2603;stroke-linecap:round;stroke-miterlimit:10;" d="
					M628.643,384.132l0.382-17.451L628.643,384.132z"/>
				
					<line style="fill:none;stroke:#5D5E66;stroke-width:3.8959;stroke-linecap:round;stroke-miterlimit:10;" x1="627.69" y1="372.375" x2="627.809" y2="366.964"/>
				<path style="fill:#494242;" d="M634.779,376.694l1.357,0.03c1.896,0.042,3.414,1.627,3.372,3.523l-0.217,9.925
					c-0.042,1.896-1.627,3.413-3.523,3.372l-1.357-0.03c-1.896-0.042-3.413-1.627-3.372-3.523l0.217-9.925
					C631.298,378.17,632.883,376.652,634.779,376.694z"/>
				<path style="fill:#494242;" d="M637.852,387.068l0.227,0.005c0.704,0.015,1.267,0.604,1.251,1.307l-0.77,35.181
					c-0.015,0.704-0.604,1.267-1.307,1.251l-1.506-0.033l0.798-36.46C636.56,387.616,637.148,387.053,637.852,387.068z"/>
				<path style="fill:#494242;" d="M635.95,420.998l0.625,0.014c0.609,0.013,1.096,0.522,1.082,1.131l-0.034,1.571
					c-0.013,0.609-0.522,1.096-1.131,1.082l-0.625-0.014c-0.609-0.013-1.096-0.522-1.082-1.131l0.034-1.571
					C634.833,421.472,635.342,420.985,635.95,420.998z"/>
				<path style="fill:#5E658E;" d="M634.22,375.352l-0.872,40.91l-1.094,57.271l-0.007,0.027l-0.047,2.365v0.007
					c-0.007,0.405-0.101,0.791-0.264,1.135c-0.466,1.007-1.493,1.696-2.669,1.669l-2.392-0.054l-0.23-0.007l-2.392-0.047
					c-1.176-0.027-2.169-0.764-2.588-1.784c-0.156-0.358-0.23-0.75-0.223-1.156l0.054-2.385l0.04-2.068l0.507-23.949l0.513-29.599
					l0.054-2.69l0.845-39.883c0.04-1.581,1.358-2.845,2.939-2.811l5.014,0.108C632.99,372.447,634.253,373.771,634.22,375.352z"/>
				
					<line style="fill:none;stroke:#8593C6;stroke-width:4.1339;stroke-linecap:round;stroke-miterlimit:10;" x1="627.084" y1="378.708" x2="624.809" y2="470.858"/>
			</g>
		</g>
		<path style="fill:#494242;" d="M632.254,473.533l-0.054,2.392v0.007c-0.007,0.405-0.101,0.791-0.264,1.135
			c-0.466,1.007-1.493,1.696-2.669,1.669l-2.392-0.054h-0.223l-2.399-0.054c-1.176-0.027-2.169,1.849-2.588,0.829
			c-0.156-0.358-0.23-3.363-0.223-3.768l0.054-2.358c0,0.54,0.439,0.993,0.987,1l1.392,0.034l7.346,0.162
			c0.547,0.014,1.007-0.419,1.027-0.966L632.254,473.533z"/>
		
			<line style="fill:none;stroke:#494242;stroke-width:3.8959;stroke-linecap:round;stroke-miterlimit:10;" x1="626.388" y1="495.646" x2="626.213" y2="503.663"/>
		<path style="fill:#AAB5E2;" d="M632.139,478.527c-0.054,1.034-0.372,2.527-0.892,4.575l-1.358,6.23
			c0,0.007-0.007,0.02-0.007,0.027l-2.176,9.961c-0.088,0.338-0.392,0.581-0.683,0.574l-0.723-0.013l-0.737-0.02
			c-0.29-0.007-0.581-0.264-0.655-0.602l-2.825-16.353c-0.327-1.574-0.644-2.491-0.644-3.785c0-1.116,0-1.297,0-2.277
			c0-0.403,0.772-0.493,1.266-0.48l2.554,0.054l5.649,0.122c0.493,0.013,0.831,0.176,1.027,0.527
			C632.112,477.385,632.18,477.865,632.139,478.527z"/>
		<path style="opacity:0.33;fill:#494242;" d="M622.61,414.998l-0.102-0.013c0,0,0.021,1.007,0.047,2.703
			c0.135,8.71,0.69,29.802-0.513,29.599l-0.507,23.949c0,0,1.014,1.237,2.338,3.129c0.44,0.622,0.906,1.311,1.385,2.054
			c0.466,0.71,0.932,1.473,1.385,2.257c0,0,0,0,0.007,0.007c0.454,0.785,0.893,1.597,1.297,2.416l-1.648,18.782l0.723,0.013
			c0.291,0.007,0.595-0.236,0.683-0.574l2.176-9.961c0-0.007,0.007-0.02,0.007-0.027l1.358-6.23c0.094-0.37,0.179-0.715,0.259-1.049
			c0.017-0.07,0.034-0.143,0.051-0.212c0.078-0.33,0.149-0.644,0.213-0.94c0.007-0.03,0.013-0.059,0.019-0.089
			c0.129-0.607,0.224-1.14,0.284-1.604c0.006-0.042,0.011-0.084,0.016-0.126c0.023-0.196,0.042-0.384,0.051-0.555l-0.001-0.001
			c0.038-0.658-0.024-1.139-0.202-1.458c0.162-0.345,0.257-0.73,0.264-1.135v-0.007l0.047-2.365l0.007-0.027l1.094-57.271
			L622.61,414.998z"/>
		<path style="fill:#FFFFFF;" d="M624.643,477.729c-0.093-0.855-1.446-0.865-1.352,0c0.816,7.488,1.171,10.419,1.603,17.592
			c0.052,0.864,1.404,0.87,1.352,0C625.814,488.148,625.465,485.275,624.643,477.729z"/>
	</g>
	<path style="fill:#F7F7F7;stroke:#FF644A;stroke-width:3;stroke-miterlimit:10;" d="M606.593,546.423V363.782V546.423z"/>
	<path style="fill:none;stroke:#FFC38D;stroke-width:20.2465;stroke-linecap:round;stroke-miterlimit:10;" d="M253.983,443.254
		l13.715-4.643c1.717-0.751,3.571-1.138,5.444-1.138l14.361,0.617"/>
	<path style="fill:none;stroke:#FFC38D;stroke-width:20.2465;stroke-linecap:round;stroke-miterlimit:10;" d="M255.07,454.135
		l12.628-4.026c1.717-0.751,3.571-0.594,5.444-0.594h7.838"/>
	<path style="fill:#D7D3DE;" d="M447.423,364.637v182.652c0,0-9.056-9.572-27.728-11.187V353.45
		C438.367,355.065,447.423,364.637,447.423,364.637z"/>
	<polygon style="fill:#B8B5C0;" points="452.218,556.34 442.954,556.34 437.519,547.28 457.654,547.28 	"/>
	<path style="fill:none;stroke:#FFC38D;stroke-width:20.2465;stroke-linecap:round;stroke-miterlimit:10;" d="M645.327,415.474
		c0,0-15.198-6.251-18.05-6.251h-12.187"/>
	<path style="fill:none;stroke:#FFC38D;stroke-width:20.2465;stroke-linecap:round;stroke-miterlimit:10;" d="M644.783,430.756
		l-13.15-4.026c-1.717-0.751-3.57-1.138-5.444-1.138h-14.361"/>
	<path style="fill:none;stroke:#FFC38D;stroke-width:20.2465;stroke-linecap:round;stroke-miterlimit:10;" d="M644.783,443.254
		l-13.15-4.643c-1.717-0.751-3.57-1.138-5.444-1.138l-14.361,0.617"/>
	<path style="fill:none;stroke:#FFC38D;stroke-width:20.2465;stroke-linecap:round;stroke-miterlimit:10;" d="M643.696,454.135
		l-12.063-4.026c-1.717-0.751-3.57-0.594-5.444-0.594h-7.838"/>
	<path style="fill:#FFCFA4;" d="M647.735,374.102h-0.006l-1.174,1.544l-2.056-3.637l-2.89,2.544l-2.155-3.131l-2.575,3.149
		l-0.988-1.704c0.136-0.296,0.945-1.853,0.945-1.853c0.735-0.093,1.537-0.13,2.242-0.142l-0.488-0.71
		c0.513,0.012,2.489,0.759,3.044,0.803c0.803,0.068,3.026,0.136,3.76,0.253l-0.204,0.173c0.605,0.086,1.291,0.191,1.945,0.315
		L647.735,374.102z"/>
	<path style="fill:#EF435D;" d="M638.349,471.161c-0.068,1.426-0.142,2.853-0.21,4.285c-0.117,2.377-3.822,2.384-3.705,0
		c0.08-1.68,0.167-3.359,0.247-5.033c0.266,0.031,0.531,0.068,0.791,0.105C636.527,470.679,637.534,470.901,638.349,471.161z"/>
	<path style="fill:#AAB5E2;" d="M638.448,466.165c0.025,1.661-0.037,3.322-0.173,4.971c-0.803-0.247-1.779-0.463-2.804-0.617
		c-0.259-0.037-0.525-0.074-0.791-0.105c-0.018,0-0.037-0.006-0.055-0.006c0.117-1.649,0.148-3.298,0.105-4.959
		c0.352,0.037,0.704,0.087,1.05,0.136C636.744,465.727,637.67,465.931,638.448,466.165z"/>
	<path style="fill:#564A4A;" d="M644.777,362.271c-0.482-1.649-1.587-1.334-2.964-0.136c-0.636,0.556-1.099,0.278-1.451-0.278
		l2.618-6.786L644.777,362.271z"/>
	<path style="fill:#9895A5;" d="M595.89,546.423c0,0,28.714-7.992,28.714-8.918c0-0.926,0-12.346,0-12.346l-36.741,20.676
		L595.89,546.423z"/>
	<path style="fill:#B8B5C0;" d="M581.631,548.349c6.187-2.476,31.172-12.511,43.022-17.359v-11.362
		c-0.031-0.018-0.049-0.031-0.049-0.031c0,6.175-12.776,0-12.776,0c-7.12,9.571-25.182,26.176-36.043,25.49l0.037,0.006
		L581.631,548.349z"/>
	<path style="fill:#78AFFF;" d="M321.432,378.893c-0.929-0.64-1.714-0.817-2.834-0.738c-0.772,0.055-1.454,0.468-2.204,0.583
		c-1.002,0.154-2.142-0.146-3.12,0.084c-0.999,0.235-1.588,0.817-2.626,1.049c-1.263,0.282-1.505-0.402-2.7-0.314
		c-0.284,0.021-0.475,0.201-0.741,0.258c-0.948,0.205-0.717,0.411-1.711,0.121c-0.698-0.203-0.817-0.876-1.76-0.951
		c-1.204-0.096-1.768,0.805-2.79,1.157c-1.574,0.542-1.534-0.325-2.45-1.206c-0.372-0.358-0.935-0.344-1.31,0
		c-0.791,0.724-1.172,1.366-1.476,2.387c-0.341,1.145,1.446,1.634,1.786,0.492l0.286-0.449c0.119,0.303,0.28,0.596,0.676,0.85
		c0.655,0.42,1.534,0.401,2.257,0.181c1.644-0.5,1.767-1.826,3.67-0.907c0.804,0.389,0.892,0.902,1.923,0.813
		c1.036-0.089,1.31-0.726,2.433-0.503c0.985,0.196,1.314,0.693,2.428,0.342c1.215-0.384,1.667-1.194,2.992-1.351
		c1.574-0.187,5.194-1.088,6.336-0.302C321.482,381.171,322.409,379.566,321.432,378.893z"/>
	<path style="fill:#78AFFF;" d="M335.445,376.464c-0.06,0.038-0.818-0.172-1.003-0.133c-0.429,0.09-0.689,0.418-1.128,0.464
		c-0.771,0.081-1.745-0.598-2.399,0.277c-0.388,0.52,0.07,0.412-0.532-0.045c-0.317-0.24-0.658-0.372-1.051-0.425
		c-0.814-0.109-1.533,0.191-2.075,0.792c-0.797,0.883,0.509,2.197,1.31,1.31c0.526-0.583,1.372,0.548,2.013,0.56
		c0.795,0.015,1.112-0.711,1.839-0.798c0.659-0.079,1.171,0.22,1.898,0.033c0.639-0.164,1.489-0.077,2.064-0.435
		C337.39,377.436,336.461,375.833,335.445,376.464z"/>
	<path style="fill:#78AFFF;" d="M375.878,372.795c-1.931-1.267-2.888-0.398-4.613,0.463c-2.044,1.02-3.593,0.049-5.603,0.066
		c-2.101,0.018-4.055,0.415-6.18,0.298c-1.025-0.056-1.825-0.135-2.776,0.253c-0.596,0.243-1.087,0.895-1.67,1.085
		c-1.079,0.353-1.769-0.234-2.66-0.564c-2.02-0.748-3.141-0.325-4.76,1.119c-0.892,0.795,0.422,2.102,1.31,1.31
		c2.172-1.937,3.231,0.425,5.411,0.31c0.975-0.051,1.466-0.609,2.284-1.043c1.471-0.781,1.954-0.597,3.664-0.488
		c1.196,0.076,2.296-0.09,3.473-0.235c2.002-0.246,3.57,0.223,5.503,0.35c1.525,0.1,4.574-2.052,5.684-1.324
		C375.943,375.05,376.872,373.447,375.878,372.795z"/>
	<path style="fill:#78AFFF;" d="M413.771,368.749c-1.994,0.319-2.642-0.566-4.209-0.433c-1.049,0.089-1.674,0.934-2.879,0.801
		c-1.844-0.204-3.039-1.198-5.032-0.542c-0.947,0.312-1.681,1.221-2.586,1.49c-0.932,0.278-1.326-0.263-2.125-0.399
		c-0.86-0.146-0.964-0.319-1.851-0.058c-0.537,0.158-1.65,1.476-2.275,0.971c-0.919-0.742-2.238,0.561-1.31,1.31
		c1.31,1.057,1.929,0.521,3.365,0.023c1.804-0.625,3.275,0.697,5.132-0.247c1.821-0.926,3.241-1.574,5.4-1.055
		c0.709,0.17,1.324,0.501,2.07,0.449c0.349-0.024,0.664-0.128,0.993-0.211c1.094-0.279,1.387-0.445,2.57-0.312
		c1.166,0.131,2.041,0.19,3.23-0.001C415.437,370.347,414.939,368.561,413.771,368.749z"/>
	<path style="fill:#78AFFF;" d="M438.363,374.123c-1.42-0.794-2.601-2.563-4.138-3.069c-0.716-0.236-1.25,0-1.963-0.004
		c-1.543-0.007-1.482-0.549-2.679-1.032c-0.639-0.258-0.842-0.184-1.594-0.261c-1.756-0.178-1.167-0.543-2.311-0.908
		c-1.309-0.418-1.935-0.356-3.121,0.548c-0.936,0.713-0.014,2.323,0.935,1.6c1.138-0.868,1.866,0.336,3.012,0.619
		c0.533,0.132,0.975-0.074,1.486-0.007c1.205,0.158,1.036,0.409,1.988,0.915c0.758,0.403,1.182,0.328,2.023,0.427
		c2.487,0.295,3.407,1.642,5.428,2.771C438.47,376.304,439.405,374.705,438.363,374.123z"/>
	<path style="fill:#78AFFF;" d="M332.383,392.545c-2.596,1.125-4.638,0.562-7.197,0.947c-0.05,0.007-1.382,0.467-1.487,0.475
		c-0.801,0.058-1.461-0.313-2.227-0.403c-2.041-0.238-3.269,0.29-5.137,0.803c-2.939,0.806-4.871-0.596-7.616-0.315
		c-0.846,0.086-1.083,0.333-1.85,0.562c-1.109,0.33-1.853,0.412-2.961,0.245c-1.064-0.16-1.208-0.001-2.256,0.182
		c-1.499,0.261-4.644-2.05-5.183,0.711c-0.227,1.165,1.558,1.663,1.786,0.493c-0.065,0.332,2.533,1.209,2.824,1.181
		c0.411-0.04,0.678-0.337,1.062-0.427c0.896-0.21,1.275,0.057,2.015,0.16c0.914,0.127,1.382,0.195,2.305-0.162
		c1.366-0.529,2.184-1.05,3.791-0.956c1.219,0.071,2.439,0.533,3.652,0.68c1.787,0.216,2.517-0.487,4.156-1.033
		c2.13-0.71,3.711,0.316,5.732,0.211c1.53-0.08,3.276-0.355,4.868-0.486c1.654-0.136,3.145-0.61,4.658-1.266
		C334.409,393.672,333.466,392.075,332.383,392.545z"/>
	<path style="fill:#78AFFF;" d="M360.092,389.209c-1.752,1.087-4.708,0.346-6.76,0.697c-1.603,0.275-2.996-0.104-4.549,0.169
		c-1.06,0.186-1.715,0.202-2.817,0.071c-0.707-0.084-1.027-0.303-1.8-0.182c-1.221,0.193-1.975,0.98-2.55,2.018
		c-0.578,1.044,1.021,1.979,1.6,0.935c0.98-1.769,3.444-0.405,4.942-0.514c0.872-0.063,1.012-0.543,2.17-0.492
		c1.042,0.046,0.675,0.316,1.67,0.274c1.826-0.076,3.503-0.683,5.41-0.641c1.41,0.031,2.392,0.025,3.619-0.737
		C362.038,390.181,361.109,388.578,360.092,389.209z"/>
	<path style="fill:#78AFFF;" d="M385.169,386.527c-0.971-0.038-1.807-0.503-2.79-0.388c-0.974,0.114-1.946,0.496-2.891,0.751
		c-1.616,0.435-3.241-0.1-4.351,1.349c-0.724,0.946,0.884,1.87,1.599,0.935c0.221-0.289,1.878-0.17,2.301-0.251
		c0.628-0.121,1.248-0.332,1.864-0.501c0.741-0.205,1.53-0.5,2.313-0.425c0.672,0.065,1.257,0.355,1.954,0.383
		C386.362,388.426,386.36,386.574,385.169,386.527z"/>
	<path style="fill:#78AFFF;" d="M430.014,386.707c-1.245-2.38-3.799-2.743-6.248-3.013c-2.31-0.254-4.654-0.593-6.975-0.726
		c-1.924-0.11-3.847,1.28-5.617,1.082c-1.28-0.143-2.197-0.876-3.569-0.696c-1.646,0.216-0.139,0.595-2.461,0.506
		c-0.643-0.025-0.923-0.265-1.585-0.174c-0.411,0.057-0.711,0.306-1.102,0.417c-1.084,0.31-2.119,0.398-3.244,0.51
		c-1.35,0.134-2.013,0.386-2.839,1.473c-0.721,0.949,0.887,1.873,1.599,0.935c0.739-0.972,2.509-0.328,3.517-0.515
		c1.14-0.211,1.931-0.922,3.16-0.859c0.781,0.04,1.208,0.19,2.044,0.059c0.983-0.155,1.87-0.405,2.836-0.286
		c0.654,0.08,1.242,0.514,1.92,0.593c0.827,0.096,1.295-0.117,2.06-0.34c1.702-0.496,3.043-0.876,4.89-0.684
		c2.761,0.287,8.525-0.191,10.014,2.653C428.967,388.698,430.567,387.763,430.014,386.707z"/>
	<path style="fill:#78AFFF;" d="M436.983,388.822c-0.79-0.164-1.442-0.484-2.056-1.005c-0.572-0.485-1.135-0.912-1.923-0.871
		c-1.186,0.061-1.193,1.914,0,1.853c0.488-0.025,1.117,0.774,1.526,1.034c0.595,0.378,1.273,0.633,1.961,0.776
		C437.653,390.849,438.151,389.064,436.983,388.822z"/>
	<path style="fill:#78AFFF;" d="M319.22,407.505c-2.085,0.805-3.864-0.39-5.866,0.053c-0.54,0.12-0.904,0.494-1.397,0.652
		c-1.294,0.413-2.238,0.07-3.43,0.1c-1.639,0.04-2.85,0.881-4.521,0.787c-1.461-0.082-2.241-0.102-3.517,0.811
		c-0.961,0.688-0.037,2.295,0.935,1.6c1.452-1.039,3.354-0.032,5.035-0.395c1.329-0.287,0.546-0.878,2.607-0.71
		c0.952,0.077,0.837,0.531,1.844,0.417c2.018-0.228,1.795-1.331,4.538-1.252c1.649,0.048,2.566,0.379,4.264-0.277
		C320.813,408.866,320.335,407.074,319.22,407.505z"/>
	<path style="fill:#78AFFF;" d="M337.615,406.559c-0.798-0.371-1.175-0.253-2.001-0.113c-0.94,0.159-1.642,0.121-2.546,0.055
		c-0.375-0.028-0.721-0.102-1.098-0.058c-0.541,0.063-1.088,0.437-1.586,0.579c-0.928,0.266-1.748,0.053-2.674-0.041
		c-0.903-0.092-1.49-0.163-2.279,0.359c-0.99,0.655-0.063,2.26,0.935,1.6c0.706-0.467,1.872,0.086,2.649,0.102
		c0.924,0.019,1.592-0.278,2.475-0.459c0.922-0.189,1.644,0.126,2.514,0.154c0.452,0.015,2.455-0.68,2.675-0.578
		C337.755,408.658,338.697,407.061,337.615,406.559z"/>
	<path style="fill:#78AFFF;" d="M406.194,399.955c-1.142,0.358-2.53-0.504-3.817-0.306c-1.25,0.192-3.015,0.099-4.249,0.545
		c-0.726,0.262-1.022,0.617-1.762,0.747c-0.457,0.081-0.894-0.086-1.368,0.017c-0.748,0.162-1.235,0.45-2.023,0.547
		c-0.816,0.1-1.214-0.006-2.023,0.194c-1.157,0.286-0.667,2.073,0.493,1.786c0.769-0.19,1.478,0.135,2.239,0.021
		c0.573-0.085,1.066-0.392,1.66-0.487c0.544-0.087,1.186,0.081,1.71-0.077c0.498-0.149,0.871-0.594,1.33-0.758
		c1.07-0.381,2.57-0.23,3.732-0.438c1.607-0.288,3.003,0.486,4.571-0.005C407.82,401.386,407.336,399.597,406.194,399.955z"/>
	<path style="fill:#78AFFF;" d="M437.154,403.948c-3.263-2.285-7.141-3.619-11.105-4.036c-1.537-0.162-2.882-0.465-4.328-0.971
		c-0.581-0.203-0.995-0.518-1.626-0.607c-1.058-0.148-1.825,0.154-2.572,0.882c-0.855,0.834,0.456,2.143,1.31,1.31
		c0.863-0.842,3.211,0.737,4.153,0.963c1.382,0.332,2.842,0.206,4.245,0.471c3.255,0.616,6.259,1.675,8.988,3.586
		C437.197,406.233,438.124,404.628,437.154,403.948z"/>
	<path style="fill:#78AFFF;" d="M373.586,401.669c-1.065-0.034-1.916,0.183-2.965,0.351c-1.464,0.234-2.917-0.004-4.337,0.136
		c-0.888,0.087-1.112,0.147-1.97,0.391c-1.573,0.447-2.201,0.525-4.005,0.531c-1.407,0.005-0.841,0.304-2.854,0.079
		c-0.421-0.047-0.679-0.269-1.184-0.201c-2.249,0.302-3.53,2.469-5.98,2.191c-1.183-0.134-1.173,1.72,0,1.853
		c2.496,0.283,3.058-0.927,5.074-1.79c1.626-0.696,1.925,0.27,3.252,0.338c0.51,0.026,1.163-0.317,1.677-0.389
		c0.68-0.095,1.301,0.013,1.983-0.052c1.401-0.133,2.583-1.03,4.005-1.1c1.102-0.054,1.918,0.298,3.015,0.187
		c1.492-0.152,2.747-0.722,4.287-0.674C374.779,403.56,374.777,401.707,373.586,401.669z"/>
	<path style="fill:#78AFFF;" d="M311.495,423.42c-1.013,0.351-1.008-0.114-1.812-0.166c-0.236-0.015-0.548,0.162-0.746,0.132
		c-0.516-0.078-1.005-0.673-1.855-0.575c-0.811,0.093-1.237,0.713-1.935,0.991c-0.978,0.39-1.937-0.23-2.988,0.171
		c-1.103,0.421-0.624,2.213,0.492,1.786c0.912-0.349,1.736,0.426,2.663,0.111c0.286-0.097,0.509-0.285,0.753-0.455
		c0.863-0.599,1.219-0.51,2.145-0.32c0.506,0.103,0.915,0.033,1.372,0.07c0.946,0.077,1.41,0.384,2.404,0.04
		C313.107,424.818,312.626,423.028,311.495,423.42z"/>
	<path style="fill:#78AFFF;" d="M346.849,419.261c-2.369,0.857-5.217,0.387-7.635,0.802c-1.377,0.236-2.758,0.491-4.112,0.694
		c-1.081,0.162-1.637-0.482-2.581-0.385c-0.905,0.092-1.311,0.817-2.28,0.878c-1.027,0.064-1.85-0.513-2.965-0.254
		c-0.496,0.116-1.193,0.654-1.667,0.755c-0.832,0.178-1.616-0.318-2.373-0.242c-0.988,0.099-1.468,0.5-2.127,1.201
		c-0.816,0.869,0.492,2.181,1.31,1.31c0.705-0.75,2.283-0.163,3.268-0.261c0.3-0.03,0.572-0.328,0.856-0.409
		c1.383-0.398,2.285-0.214,3.571-0.237c0.655-0.012,1.095,0.023,1.771-0.156c0.304-0.08,0.451-0.542,0.807-0.559
		c0.402-0.019,0.542,0.362,0.945,0.427c1.786,0.287,3.906-0.398,5.633-0.772c1.513-0.328,2.513,0.168,3.945-0.071
		c1.336-0.223,2.841-0.472,4.124-0.936C348.454,420.645,347.974,418.854,346.849,419.261z"/>
	<path style="fill:#78AFFF;" d="M371.643,417.655c-1.933,0.288-3.736,0.068-5.626,0.35c-1.358,0.203-1.894,0.678-3.294,0.384
		c-0.762-0.16-1.154-0.333-1.859,0.191c-0.946,0.704-0.023,2.312,0.935,1.6c0.143-0.106,1.63,0.407,2.002,0.367
		c0.5-0.054,0.947-0.24,1.423-0.374c0.827-0.232,1.457-0.195,2.256-0.271c0.758-0.072,0.737-0.109,1.167-0.128
		c1.159-0.053,2.298-0.154,3.489-0.331C373.311,419.266,372.811,417.481,371.643,417.655z"/>
	<path style="fill:#78AFFF;" d="M428.605,414.358c-0.845,0.068-1.4-0.933-2.118-1.163c-0.85-0.272-2.152-0.35-2.952-0.526
		c-1.869-0.409-3.701-0.453-5.624-0.723c-3.019-0.425-6.179,0.455-9.227,0.489c-2.197,0.025-3.464-0.259-5.603,0.307
		c-1.733,0.459-3.399-0.181-5.052,0.342c-1.032,0.326-1.651,0.866-2.78,0.965c-0.923,0.081-1.532,0.032-2.46,0.245
		c-0.124,0.028-4.877,0.976-4.801,1.052c-0.846-0.842-2.157,0.467-1.31,1.31c0.741,0.738,1.22,0.754,2.216,0.487
		c1.827-0.49,3.946-1.114,5.944-1.268c1.854-0.142,3.396-0.983,5.214-1.03c0.745-0.019,1.372,0.151,2.137,0.049
		c0.904-0.121,1.737-0.643,2.634-0.741c1.173-0.129,2.115,0.436,3.22,0.374c0.98-0.055,1.963-0.261,2.947-0.331
		c2.143-0.152,5.08-0.449,7.236-0.246c1.924,0.181,3.842,0.282,5.699,0.83c1.362,0.402,3.175,1.552,4.68,1.43
		C429.785,416.115,429.795,414.261,428.605,414.358z"/>
	<path style="fill:#78AFFF;" d="M312.058,439.372c-1.464,0.227-2.727-0.073-4.168-0.034c-1.042,0.028-1.858,0.581-2.918,0.669
		c-1.292,0.108-2.427-0.607-3.473,0.366c-0.875,0.813,0.437,2.121,1.31,1.31c-0.122,0.114,1.686,0.181,1.66,0.181
		c0.724-0.003,1.312,0.173,2.015-0.091c0.894-0.335,1.428-0.569,2.413-0.487c1.255,0.104,2.414,0.064,3.654-0.128
		C313.725,440.977,313.226,439.191,312.058,439.372z"/>
	<path style="fill:#78AFFF;" d="M347.347,436.293c-2.085,0.038-4.127,0.245-6.181,0.593c-1.905,0.323-3.719,0.109-5.594,0.248
		c-0.998,0.074-2.016,0.408-3.021,0.491c-1.33,0.11-2.48-0.246-3.601,0.536c-0.971,0.677-0.046,2.284,0.935,1.6
		c0.341-0.238,2.611-0.303,3.158-0.35c1.093-0.093,2.167-0.257,3.247-0.329c1.257-0.084,2.389,0.159,3.666-0.05
		c2.504-0.409,4.843-0.841,7.39-0.887C348.538,438.124,348.542,436.271,347.347,436.293z"/>
	<path style="fill:#78AFFF;" d="M372.023,434.001c-3.445,0.51-6.611-0.283-9.962,0.539c-1.497,0.367-2.996,0.168-4.494,0.462
		c-1.849,0.363-3.517,0.661-5.424,0.738c-1.188,0.048-1.194,1.901,0,1.853c1.427-0.057,2.923,0.006,4.33-0.257
		c1.724-0.322,3.447-0.427,5.16-0.761c0.765-0.149,1.525-0.587,2.291-0.673c1.083-0.121,2.251,0.18,3.341,0.242
		c1.79,0.101,3.483-0.094,5.251-0.356C373.691,435.614,373.192,433.828,372.023,434.001z"/>
	<path style="fill:#78AFFF;" d="M390.311,432.499c-0.993,0.202-2.155,0.573-3.168,0.524c-0.827-0.04-1.344-0.145-1.894,0.594
		c-0.623,0.837,0.529,1.65,1.299,1.206c0.044,0.012,0.104,0.022,0.189,0.026c0.189,0.035,0.38,0.048,0.573,0.041
		c0.35-0.01,0.716-0.097,1.061-0.154c0.814-0.135,1.625-0.287,2.433-0.452C391.971,434.047,391.477,432.261,390.311,432.499z"/>
	<path style="fill:#78AFFF;" d="M436.192,433.811c-2.317-1.031-4.694-1.551-7.183-1.999c-2.863-0.516-5.371-1.47-8.128-2.293
		c-2.164-0.646-5.054-0.42-7.287-0.335c-3.202,0.123-6.201,1.667-9.411,1.74c-1.19,0.027-1.195,1.88,0,1.853
		c2.359-0.054,4.565-0.858,6.865-1.316c1.888-0.376,3.49-0.247,5.365-0.246c1.377,0,2.601-0.289,3.976,0.091
		c2.239,0.619,4.272,1.574,6.588,2.017c2.824,0.54,5.628,0.909,8.28,2.089C436.337,435.891,437.28,434.295,436.192,433.811z"/>
	<path style="fill:#78AFFF;" d="M322.482,453.72c-1.837,0.57-3.647-0.159-5.511,0.124c-1.267,0.193-2.248,0.653-3.563,0.619
		c-1.03-0.026-2.01-0.293-3.05-0.254c-0.806,0.03-1.596,0.242-2.387,0.371c-1.393,0.226-2.555-0.227-3.889-0.104
		c-0.743,0.069-1.27,0.34-1.752,0.753c-0.208,0.049-0.405,0.173-0.551,0.402c-0.123,0.192-0.247,0.385-0.37,0.577
		c-0.561,0.875,0.756,1.92,1.455,1.122c1.089-1.244,2.912-0.617,4.414-0.748c2.162-0.189,3.966-0.363,6.131-0.266
		c1.71,0.077,3.075-0.652,4.735-0.732c1.71-0.082,3.137,0.448,4.832-0.077C324.109,455.154,323.625,453.365,322.482,453.72z"/>
	<path style="fill:#78AFFF;" d="M343.327,452.162c-3.08,0.058-6.782-0.402-9.745,0.538c-1.132,0.359-0.648,2.148,0.492,1.786
		c2.784-0.883,6.343-0.416,9.253-0.471C344.517,453.992,344.521,452.139,343.327,452.162z"/>
	<path style="fill:#78AFFF;" d="M355.741,465.484c-5.447,1.42-10.937,2.027-16.561,1.927c-2.153-0.038-3.739,0.085-5.767,0.814
		c-2.204,0.793-4.443,0.768-6.729,0.958c-1.113,0.092-2.369,0.345-3.492,0.219c-1.063-0.12-1.84-0.414-3.006-0.348
		c-2.771,0.157-5.557,0.648-8.313,0.961c-3.449,0.391-6.275-1.551-8.499,1.885c-0.65,1.004,0.953,1.933,1.6,0.935
		c1.032-1.594,4.542-0.704,6.306-0.899c2.574-0.285,5.144-0.61,7.719-0.892c1.904-0.209,2.168-0.175,4.19,0.382
		c0.401,0.11,0.786,0.299,1.21,0.327c0.816,0.053,1.21-0.306,1.944-0.429c1.323-0.221,2.731-0.173,4.067-0.342
		c1.912-0.242,3.492-1.217,5.36-1.602c2.176-0.449,4.597-0.045,6.807-0.107c4.625-0.129,9.184-0.837,13.657-2.003
		C357.386,466.97,356.898,465.183,355.741,465.484z"/>
	<path style="fill:#78AFFF;" d="M398.812,462.249c-0.667,0.302-2.407-0.799-3.204-0.857c-1.194-0.087-2.457,0.529-3.647,0.602
		c-2.905,0.178-5.755,0.193-8.645,0.646c-1.525,0.239-3.037,0.552-4.533,0.933c-1.763,0.45-3.25,0.188-5.016,0.179
		c-1.35-0.007-2.1,0.276-2.936,1.387c-0.717,0.953,0.891,1.877,1.6,0.935c0.514-0.684,2.452,0.093,3.184,0.12
		c1.026,0.038,2.14-0.441,3.1-0.692c2.91-0.758,5.867-1.289,8.869-1.514c2.121-0.159,4.299-0.289,6.414-0.385
		c2.03-0.092,3.878,1.091,5.748,0.244C400.831,463.358,399.89,461.76,398.812,462.249z"/>
	<path style="fill:#78AFFF;" d="M422.783,460.268c-2.089-0.431-4.179-0.937-6.283-1.287c-1.332-0.222-2.616-0.219-3.747,0.601
		c-0.956,0.693-0.032,2.301,0.935,1.6c1.263-0.916,2.894-0.304,4.291-0.016c1.437,0.296,2.874,0.593,4.312,0.889
		C423.454,462.294,423.951,460.509,422.783,460.268z"/>
	<path style="fill:#78AFFF;" d="M432.651,463.122c-1.344-1.039-2.802-1.816-4.433-2.303c-1.145-0.342-1.634,1.446-0.492,1.786
		c1.306,0.39,2.534,0.991,3.615,1.827C432.273,465.152,433.594,463.85,432.651,463.122z"/>
	<path style="fill:#78AFFF;" d="M338.905,484.422c-5.406,2.348-11.707-0.152-17.334,0.833c-5.857,1.026-11.799,1.148-17.747,1.475
		c-1.186,0.065-1.193,1.918,0,1.852c3.352-0.184,6.704-0.368,10.057-0.553c3.045-0.167,5.981-0.829,8.981-1.058
		c5.613-0.428,11.637,1.369,16.978-0.951C340.93,485.548,339.988,483.952,338.905,484.422z"/>
	<path style="fill:#78AFFF;" d="M377.963,479.047c-1.703-0.338-3.1-0.221-4.785,0.254c-1.288,0.363-2.224,0.845-3.588,0.752
		c-1.138-0.077-1.502-0.234-2.671-0.099c-2.038,0.234-4.088,0.99-6.142,0.861c-1.534-0.097-2.497-0.7-3.822,0.259
		c-0.957,0.692-0.033,2.3,0.935,1.6c0.734-0.531,2.461,0.163,3.391,0.126c1.454-0.058,2.925-0.569,4.363-0.764
		c1.68-0.228,3.273,0.103,4.886,0.029c2.577-0.118,4.085-1.797,6.941-1.231C378.635,481.064,379.134,479.279,377.963,479.047z"/>
	<path style="fill:#78AFFF;" d="M399.638,477.964c-2.183,0.714-5.583,0.438-7.753,0.187c-2.242-0.259-4.634,0.705-6.947,0.804
		c-1.188,0.051-1.194,1.904,0,1.852c1.437-0.061,2.824-0.242,4.243-0.456c1.218-0.184,2.233,0.142,3.338,0.096
		c1.184-0.049,2.286-0.417,3.495-0.393c1.481,0.03,2.692,0.163,4.116-0.303C401.259,479.381,400.776,477.592,399.638,477.964z"/>
	<path style="fill:#78AFFF;" d="M441.487,482.86c-4.09-2.035-8.22-4.355-12.7-5.422c-4.135-0.985-8.514-0.71-12.765-0.582
		c-0.176-0.602-0.969-1.032-1.543-0.45c-0.249,0.253-0.499,0.507-0.748,0.76c-0.554,0.563-0.157,1.594,0.655,1.581
		c4.587-0.072,9.406-0.56,13.908,0.477c4.328,0.997,8.311,3.272,12.257,5.236C441.616,484.989,442.556,483.392,441.487,482.86z"/>
	<path style="fill:#78AFFF;" d="M314.456,499.628c-1.256,0.344-2.2-0.228-3.397-0.079c-0.486,0.06-0.914,0.391-1.445,0.474
		c-0.593,0.092-1.06-0.018-1.638,0.047c-1.025,0.116-2.192,0.249-3.196,0.455c-0.732,0.15-1.063,0.449-1.502,1.021
		c-0.726,0.945,0.883,1.869,1.6,0.935c0.242-0.315,2.048-0.238,2.525-0.307c0.865-0.126,1.758,0.034,2.619-0.081
		c0.84-0.112,1.251-0.618,2.13-0.547c1.017,0.082,1.785,0.145,2.798-0.132C316.097,501.099,315.609,499.312,314.456,499.628z"/>
	<path style="fill:#78AFFF;" d="M337.996,498.73c-1.03-0.141-2.068-0.304-3.111-0.241c-1.226,0.075-2.287,0.632-3.474,0.847
		c-1.865,0.338-3.375-1.172-4.989,0.078c-0.941,0.729,0.379,2.032,1.31,1.31c0.166-0.129,1.708,0.542,1.905,0.572
		c0.528,0.078,1.017,0.044,1.538-0.029c0.876-0.124,1.666-0.484,2.518-0.697c1.318-0.33,2.479-0.237,3.81-0.054
		C338.669,500.676,339.173,498.891,337.996,498.73z"/>
	<path style="fill:#78AFFF;" d="M363.035,495.491c-1.994,0.353-3.967,0.981-5.929,0.43c-1.079-0.303-2.194-0.211-2.732,0.901
		c-0.517,1.068,1.08,2.009,1.599,0.935c0.168-0.346,1.565,0.284,1.833,0.324c0.523,0.08,1.01,0.011,1.525-0.064
		c1.403-0.205,2.799-0.492,4.195-0.74C364.699,497.07,364.203,495.284,363.035,495.491z"/>
	<path style="fill:#78AFFF;" d="M390.811,492.941c-3.507,1.777-8.428,0.234-12.26,0.632c-4.129,0.428-8.321,2.117-12.487,1.546
		c-1.166-0.16-1.67,1.625-0.492,1.786c4.781,0.655,9.331-1.237,14.074-1.578c4.06-0.292,8.317,1.131,12.1-0.786
		C392.81,494.001,391.873,492.402,390.811,492.941z"/>
	<path style="fill:#78AFFF;" d="M417.034,491.722c-4.822-0.329-9.822,0.471-14.628,0.846c-1.181,0.092-1.191,1.945,0,1.852
		c4.808-0.375,9.808-1.174,14.628-0.845C418.223,493.656,418.218,491.803,417.034,491.722z"/>
	<path style="fill:#78AFFF;" d="M339.78,514.362c-3.766,0.329-7.523,0.728-11.271,1.22c-3.649,0.479-7.76,1.753-11.408,1.16
		c-0.692-0.112-1.114-0.4-1.873-0.315c-1.333,0.149-1.755,0.953-3.108,0.412c-1.101-0.441-0.627-0.92-2.01-0.676
		c-1.92,0.339-3.264,1.365-5.171,0.035c-0.335-0.233-0.847-0.128-1.122,0.145c-0.494,0.489-0.989,0.978-1.483,1.467
		c-0.849,0.84,0.461,2.15,1.31,1.31c0.319-0.316,0.638-0.631,0.956-0.946c0.817,0.47,1.677,0.754,2.67,0.757
		c1.06,0.003,2.602-1.03,3.54-0.782c0.715,0.189,0.82,0.964,1.787,1.043c1.434,0.119,2.619-0.661,4.238-0.536
		c3.032,0.234,5.911-0.409,8.963-0.849c4.645-0.669,9.307-1.185,13.981-1.593C340.958,516.111,340.969,514.258,339.78,514.362z"/>
	<path style="fill:#78AFFF;" d="M381.863,510.046c-3.801-0.586-7.588-1.043-11.283,0.317c-1.095,0.403-1.716,0.85-3.005,0.624
		c-0.379-0.067-0.66-0.401-1.067-0.404c-0.651-0.004-0.795,0.055-1.455,0.196c-0.911,0.196-1.534,0.141-2.349,0.213
		c-1.12,0.1-1.559,0.472-2.596,0.851c-1.085,0.396-2.695,0.214-3.873,0.375c-1.825,0.25-5.12-1.02-5.345,1.854
		c-0.093,1.189,1.76,1.183,1.853,0c-0.009,0.109,2.749,0.418,3.086,0.373c0.484-0.065,0.834-0.375,1.358-0.415
		c0.579-0.044,0.978,0.221,1.519,0.2c1.002-0.04,1.46-0.42,2.337-0.788c1.182-0.496,2.16-0.227,3.376-0.296
		c0.274-0.016,0.536-0.263,0.805-0.324c2.07-0.469,0.975,0.06,2.238,0.155c0.734,0.056,1.06,0.145,1.806-0.035
		c1.766-0.426,3.238-1.354,5.104-1.559c2.355-0.258,4.67,0.088,6.999,0.447C382.537,512.013,383.04,510.228,381.863,510.046z"/>
	<path style="fill:#78AFFF;" d="M392.238,508.642c-0.875,0.5-1.986-0.004-2.93-0.006c-0.883-0.002-1.691,0.246-2.314,0.889
		c-0.829,0.857,0.479,2.169,1.31,1.31c0.6-0.62,1.663-0.273,2.414-0.186c0.873,0.101,1.68,0.036,2.455-0.408
		C394.208,509.65,393.275,508.048,392.238,508.642z"/>
	<path style="fill:#78AFFF;" d="M438.39,512.675c-2.762-1.706-5.504-3.726-8.469-5.063c-2.812-1.268-5.915-1.321-8.941-1.545
		c-1.615-0.12-3.235-0.295-4.853-0.352c-1.474-0.052-2.796,0.352-4.253,0.434c-2.191,0.124-3.81-0.408-5.245,1.592
		c-0.696,0.97,0.91,1.896,1.6,0.935c0.657-0.916,6.111-1.131,7.402-1.139c2.314-0.014,4.678,0.329,6.983,0.502
		c3.171,0.239,5.575,0.655,8.344,2.228c2.207,1.253,4.337,2.673,6.495,4.006C438.472,514.902,439.403,513.301,438.39,512.675z"/>
	<path style="fill:#78AFFF;" d="M506.346,371.411c-5.017,0.416-9.285-0.368-13.899-2.198c-1.421-0.564-2.476-0.565-3.996-0.595
		c-1.67-0.033-3.251-0.667-4.864-0.644c-1.012,0.014-1.268,0.672-2.509,0.469c-0.43-0.07-0.876-0.511-1.355-0.615
		c-1.471-0.32-2.8,0.596-4.263,0.653c-2.631,0.102-5.51-1.136-6.941,1.905c-0.505,1.073,1.092,2.014,1.6,0.935
		c0.645-1.371,3.221-1.155,4.236-1.085c0.73,0.05,1.334,0.124,2.081,0.02c0.381-0.053,0.75-0.249,1.127-0.28
		c1.073-0.089,1.813,0.046,2.952,0.243c0.798,0.138,1.015,0.29,1.917,0.156c0.807-0.12,1.537-0.409,2.334-0.309
		c0.532,0.066,1.069,0.343,1.622,0.408c2.167,0.254,3.938-0.007,6.072,0.832c1.175,0.462,2.27,0.954,3.516,1.253
		c3.406,0.816,6.888,0.995,10.371,0.706C507.526,373.165,507.536,371.312,506.346,371.411z"/>
	<path style="fill:#78AFFF;" d="M546.568,374.993c-3.03-0.682-6.06-1.484-9.119-2.027c-2.784-0.494-5.412,0.486-8.018-0.017
		c-0.597-0.115-0.955-0.316-1.648-0.317c-1.309-0.002-1.02,0.736-3.013,0.319c-0.594-0.124-1.141-0.5-1.716-0.686
		c-0.899-0.29-1.708-0.406-2.48-0.276c-0.397-0.34-1.07-0.395-1.427,0.181c-0.175,0.282-0.35,0.564-0.525,0.846
		c-0.594,0.957,0.684,1.741,1.455,1.122c1.455-1.167,4.464,0.791,6.211,0.813c0.978,0.012,1.706-0.296,2.737-0.075
		c0.534,0.115,0.994,0.449,1.628,0.449c0.757,0.001,1.406-0.401,2.12-0.552c2.036-0.43,3.733-0.114,5.743,0.301
		c2.529,0.522,5.041,1.135,7.56,1.703C547.237,377.041,547.732,375.256,546.568,374.993z"/>
	<path style="fill:#78AFFF;" d="M571.831,376.321c-3.236-0.338-6.478-0.612-9.727-0.796c-2.098-0.118-4.354-0.551-6.206,0.635
		c-1.001,0.641-0.073,2.245,0.935,1.6c1.882-1.204,5.51-0.379,7.563-0.239c2.483,0.17,4.96,0.394,7.435,0.653
		C573.016,378.297,573.007,376.444,571.831,376.321z"/>
	<path style="fill:#78AFFF;" d="M485.983,384.529c-3.856-1.217-7.787-0.193-11.736-0.165c-2.377,0.017-5.1-0.557-6.565,1.734
		c-0.644,1.007,0.959,1.938,1.6,0.935c1.085-1.696,5.825-0.799,7.576-0.92c2.948-0.204,5.743-0.71,8.634,0.202
		C486.63,386.675,487.118,384.887,485.983,384.529z"/>
	<path style="fill:#78AFFF;" d="M518.118,386.525c-1.871-1.052-3.518-0.438-5.534-0.589c-1.714-0.129-2.25-1.259-3.691-1.733
		c-0.782-0.257-1.285,0.064-2.034,0.192c-2.753,0.472-5.487,0.391-8.197-0.257c-1.394-0.333-2.737,0.001-3.372,1.342
		c-0.507,1.072,1.09,2.013,1.6,0.935c0.38-0.803,4.091,0.58,5.087,0.507c1.569-0.116,3.182-0.356,4.761-0.453
		c2.147-0.132,2.931,1.022,4.861,1.276c1.886,0.248,3.798-0.624,5.584,0.38C518.224,388.71,519.159,387.11,518.118,386.525z"/>
	<path style="fill:#78AFFF;" d="M531.203,386.974c-1.082-0.569-2.293-0.715-3.471-0.372c-1.143,0.332-0.657,2.12,0.492,1.786
		c0.699-0.203,1.396-0.156,2.044,0.186C531.323,389.128,532.26,387.53,531.203,386.974z"/>
	<path style="fill:#78AFFF;" d="M594.029,378.246c-4.63-0.447-9.253-0.943-13.871-1.504c-1.181-0.143-1.17,1.71,0,1.853
		c4.618,0.561,9.241,1.057,13.871,1.504C595.214,380.213,595.206,378.359,594.029,378.246z"/>
	<path style="fill:#78AFFF;" d="M507.837,402.655c-3.085-2.255-6.163-2.776-9.887-2.714c-1.298,0.022-3.039-0.571-4.343-0.425
		c-0.579,0.065-1.227,0.482-1.788,0.406c-0.561-0.076-0.72-0.434-1.251-0.636c-2.954-1.123-6.497-0.469-9.527,0.035
		c-3.512,0.584-6.408-1.225-9.078,1.926c-0.766,0.904,0.538,2.221,1.31,1.31c1.358-1.603,3.573-1.289,5.453-1.157
		c1.359,0.096,2.581-0.295,3.919-0.508c2.075-0.331,4.41-0.548,6.438,0.063c0.797,0.24,1.365,0.728,2.129,0.903
		c0.862,0.198,1.327-0.403,2.114-0.44c0.974-0.046,2.048,0.556,3.074,0.559c1.821,0.006,3.458-0.445,5.299-0.105
		c1.93,0.356,3.635,1.236,5.204,2.382C507.866,404.959,508.791,403.353,507.837,402.655z"/>
	<path style="fill:#78AFFF;" d="M545.883,404.841c-2.013-0.889-4.069-1.501-6.277-1.64c-1.287-0.081-2.644,0.323-3.894,0.207
		c-1.431-0.133-3.008-1.211-4.457-1.507c-2.462-0.503-5.154-0.605-7.658-0.727c-1.853-0.09-3.297,0.026-4.736,1.245
		c-0.911,0.772,0.405,2.076,1.31,1.31c1.673-1.417,4.611-0.603,6.62-0.434c2.505,0.211,4.406,0.515,6.743,1.474
		c1.47,0.603,2.501,0.38,4.06,0.285c2.572-0.157,5.008,0.35,7.353,1.386C546.028,406.917,546.972,405.322,545.883,404.841z"/>
	<path style="fill:#78AFFF;" d="M567.393,406.713c-3.917-1.305-7.846-1.472-11.905-0.798c-1.173,0.195-0.675,1.98,0.493,1.786
		c3.724-0.618,7.329-0.398,10.92,0.798C568.034,408.877,568.52,407.089,567.393,406.713z"/>
	<path style="fill:#78AFFF;" d="M487.198,414.33c-2.018-0.102-3.843-0.549-5.787-1.005c-1.407-0.33-2.136,0.161-3.54,0.253
		c-1.976,0.13-3.826-0.475-5.034,1.488c-0.626,1.018,0.975,1.95,1.6,0.935c0.762-1.237,2.461-0.432,3.571-0.482
		c0.843-0.038,1.543-0.389,2.36-0.418c2.159-0.076,4.587,0.967,6.831,1.081C488.39,416.242,488.387,414.39,487.198,414.33z"/>
	<path style="fill:#78AFFF;" d="M547.404,419.466c-2.501,1.028-4.117-0.647-6.498-0.765c-2.46-0.121-4.682,0.1-7.128-0.53
		c-2.196-0.566-4.321-1.202-6.579-1.505c-2.272-0.304-4.653,0.126-6.87-0.176c-1.793-0.245-2.626-1.675-4.254-1.859
		c-0.967-0.109-1.804,0.426-2.684,0.691c-1.419,0.427-2.797,0.471-4.259,0.36c-3.14-0.239-7.606-2.02-10.212,0.436
		c-0.87,0.819,0.442,2.128,1.31,1.31c1.701-1.603,5.827-0.24,7.746-0.021c1.651,0.188,3.293,0.31,4.931-0.039
		c1.713-0.365,2.885-0.593,4.482,0.222c0.374,0.191,0.695,0.504,1.106,0.645c1.532,0.524,3.637-0.037,5.211,0.004
		c4.527,0.116,8.555,1.945,12.983,2.411c1.084,0.114,2.112-0.072,3.177-0.038c2.431,0.077,1.855,0.431,3.449,0.802
		c1.712,0.398,2.903,0.529,4.581-0.161C548.984,420.805,548.508,419.012,547.404,419.466z"/>
	<path style="fill:#78AFFF;" d="M572.51,421.874c-2.604,0.371-5.422-0.886-8.099-0.821c-1.949,0.047-3.828-1.261-5.633-0.346
		c-1.063,0.54-0.127,2.138,0.935,1.6c0.665-0.337,2.487,0.6,3.227,0.663c1.526,0.13,2.893-0.26,4.442,0.028
		c1.979,0.368,3.595,0.951,5.619,0.663C574.178,423.493,573.678,421.707,572.51,421.874z"/>
	<path style="fill:#78AFFF;" d="M598.748,423.475c-1.04-0.631-1.882-0.822-3.108-0.741c-2.544,0.169-4.991,0.705-7.547,0.272
		c-1.565-0.265-2.939-1.015-4.556-1.203c-2.115-0.246-4.304-0.143-6.431-0.164c-1.193-0.012-1.193,1.841,0,1.853
		c1.62,0.016,3.253-0.03,4.87,0.055c2.034,0.106,3.6,0.967,5.508,1.387c1.231,0.271,2.802,0.152,4.052,0.224
		c2.036,0.118,4.376-1.236,6.276-0.083C598.834,425.694,599.767,424.093,598.748,423.475z"/>
	<path style="fill:#78AFFF;" d="M485.906,431.039c-1.009-1.067-2.263-1.233-3.675-1.265c-2.453-0.055-4.915,0-7.369-0.001
		c-1.192,0-1.194,1.852,0,1.853c1.636,0,3.271,0,4.907,0.001c1.404,0,3.747-0.419,4.827,0.722
		C485.417,433.217,486.725,431.906,485.906,431.039z"/>
	<path style="fill:#78AFFF;" d="M493.639,431.603l-2.465-0.636c-1.155-0.298-1.648,1.488-0.493,1.786l2.465,0.637
		C494.302,433.688,494.795,431.901,493.639,431.603z"/>
	<path style="fill:#78AFFF;" d="M523.435,432.414c-4.539-1.21-8.772-1.056-13.397-0.547c-2.14,0.236-3.758-0.548-5.825-0.796
		c-1.359-0.164-2.441,0.168-3.351,1.206c-0.783,0.893,0.523,2.209,1.31,1.31c0.67-0.765,2.866-0.272,3.738-0.084
		c0.768,0.165,1.012,0.281,1.709,0.341c1.474,0.125,2.969-0.216,4.429-0.381c3.707-0.418,7.274-0.228,10.895,0.737
		C524.096,434.508,524.588,432.722,523.435,432.414z"/>
	<path style="fill:#78AFFF;" d="M571.716,439.373c-0.663-0.983-1.183-0.916-2.29-0.902c-1.586,0.02-2.595,0.311-4.178-0.432
		c-0.834-0.391-1.647-0.903-2.538-1.166c-2.232-0.659-4.244-0.002-6.519-0.924c-1.755-0.711-3.553-1.36-5.47-1.42
		c-0.979-0.03-1.797,0.233-2.747,0.343c-0.498,0.216-1.016,0.232-1.554,0.049c-0.176-0.251-0.388-0.463-0.635-0.636
		c-1.383-0.335-1.397,0.032-2.573,0.567c-3.287,1.495-7.158-2.594-9.775,0.953c-0.708,0.96,0.898,1.885,1.6,0.935
		c1.315-1.782,4.538,0.473,6.116,0.627c1.149,0.112,1.565-0.137,2.569-0.57c1.74-0.75,1.254-0.18,2.488,0.205
		c0.92,0.287,0.876-0.063,1.77-0.196c1.688-0.251,2.753-0.556,4.536-0.166c1.736,0.38,3.268,1.335,4.978,1.765
		c1.586,0.398,3.154-0.221,4.724,0.255c1.594,0.482,2.929,1.665,4.6,1.942c0.375,0.062,3.268-0.338,3.298-0.294
		C570.779,441.291,572.385,440.365,571.716,439.373z"/>
	<path style="fill:#78AFFF;" d="M587.449,438.118c-1.642-0.088-3.284-0.177-4.926-0.265c-1.191-0.064-1.188,1.789,0,1.853
		c1.642,0.088,3.284,0.177,4.926,0.265C588.64,440.035,588.636,438.182,587.449,438.118z"/>
	<path style="fill:#78AFFF;" d="M520.894,450.36c-5.107-1.799-10.502,0.315-15.453-2.148c-2.013-1.002-2.731-1.176-4.881-0.919
		c-1.59,0.19-2.514-0.058-3.827-0.204c-0.606-0.067-1.084-0.08-1.671,0.023c-1.948,0.342-1.638,0.875-3.851-0.232
		c-0.455-0.228-0.826-0.567-1.344-0.641c-0.789-0.113-1.318,0.158-1.984,0.524c-1.88,1.032-2.927,1.711-5.279,1.22
		c-3.012-0.629-7.05-1.714-8.698,1.818c-0.501,1.074,1.095,2.016,1.599,0.935c1.758-3.768,8.595,0.47,11.9-1.32
		c1.256-0.68,1.55-1.364,3.099-0.68c0.778,0.343,0.913,0.753,1.811,0.861c1.74,0.209,2.876-0.898,4.701-0.323
		c1.442,0.454,1.857,0.37,3.276,0.181c2.833-0.376,3.028-0.148,5.026,0.818c0.633,0.306,1.274,0.569,1.953,0.758
		c4.316,1.201,8.844-0.393,13.13,1.116C521.529,452.543,522.013,450.754,520.894,450.36z"/>
	<path style="fill:#78AFFF;" d="M552.376,454.662c-0.075-0.013-0.145-0.038-0.206-0.087c-0.23-0.123-0.424-0.398-0.626-0.565
		c-0.392-0.324-0.842-0.605-1.366-0.626c-0.75-0.03-1.432,0.411-1.691,1.046c-0.244-0.374-0.72-0.605-1.226-0.334
		c-0.177,0.095-2.211-2.6-2.892-2.832c-1.077-0.367-1.722,0.214-2.643,0.598c-2.676,1.116-5.195-1.596-7.673,0.482
		c-0.915,0.767,0.402,2.071,1.31,1.31c1.303-1.092,3.439,0.631,4.807,0.665c1.347,0.034,2.104-0.967,3.412-0.594
		c1.766,0.504,2.26,3.237,4.616,1.971c0.112-0.06,0.198-0.134,0.267-0.215c0.337,0.871,1.607,0.634,1.767-0.158
		c0.009,0.005,0.017,0.011,0.026,0.016c0.111,0.148,0.302,0.282,0.444,0.406c0.342,0.299,0.68,0.556,1.122,0.688
		c0.803,0.24,1.678-0.01,2.098-0.76C554.489,454.662,552.996,453.755,552.376,454.662z"/>
	<path style="fill:#78AFFF;" d="M560.705,453.803c-0.484-0.001-0.948,0.427-0.926,0.926c0.002,0.039,0.01,0.076,0.016,0.114
		c-0.019,0.073-0.031,0.147-0.028,0.222c0.024,0.53,0.408,0.89,0.926,0.926c0.616,0.042,1.063-0.515,1.082-1.089
		C561.795,454.298,561.3,453.805,560.705,453.803z"/>
	<g>
		<path style="fill:#F4513B;" d="M552.017,509.034c-0.975-4.616-1.606-9.243-2.168-13.892c0.2-0.018,0.396-0.046,0.597-0.06
			c1.28-0.087,1.289-2.092,0-2.004c-0.28,0.019-0.556,0.056-0.834,0.083c-0.188-1.6-0.373-3.202-0.564-4.809
			c-0.244-2.043-1.137-11.89-5.238-9.537c-1.721,0.987-2.41,3.803-3.064,5.511c-1.137,2.971-2.077,6.016-2.81,9.111
			c-0.338,1.427-0.677,2.911-0.97,4.424c-0.09,0.174-0.121,0.364-0.102,0.551c-0.792,4.277-1.177,8.755-0.11,12.831
			c0.326,1.247,2.26,0.718,1.932-0.533c-0.986-3.766-0.575-7.895,0.146-11.814c2.776-1.745,5.758-2.913,8.939-3.476
			c0.548,4.75,1.325,9.468,2.313,14.147C550.351,510.828,552.283,510.294,552.017,509.034z M539.565,495.298
			c0.514-2.368,1.148-4.71,1.899-7.014c0.376-1.152,0.78-2.294,1.214-3.426c0.285-0.743,0.846-3.077,1.444-3.416
			c1.939-1.097,2.51,4.074,2.717,5.404c0.341,2.183,0.505,4.39,0.717,6.589c-2.88,0.496-5.623,1.438-8.2,2.833
			C539.426,495.943,539.496,495.619,539.565,495.298z"/>
		<path style="fill:#F4513B;" d="M566.226,492.642c-0.755,0.175-1.505,0.364-2.253,0.561c-0.257-1.167-0.514-2.335-0.771-3.502
			c-0.277-1.259-2.209-0.726-1.932,0.533c0.257,1.168,0.514,2.335,0.771,3.503c-1.187,0.344-2.367,0.712-3.54,1.11
			c-1.214,0.413-0.693,2.349,0.533,1.932c1.139-0.388,2.286-0.745,3.439-1.08c0.279,1.268,0.558,2.537,0.838,3.805
			c0.277,1.259,2.209,0.726,1.932-0.533c-0.279-1.269-0.559-2.539-0.838-3.808c0.782-0.206,1.566-0.405,2.354-0.588
			C568.014,494.283,567.482,492.35,566.226,492.642z"/>
	</g>
	<path style="fill:#F4513B;" d="M573.254,473.182c-7.621-9.978-22.931-12.836-32.206-3.338c-0.902,0.923,0.514,2.342,1.417,1.417
		c7.613-7.796,20.237-6.44,27.471,1.104c8.044,8.389,8.619,20.824,4.672,31.262c-4.106,10.859-12.621,19.876-24.926,19.522
		c-11.184-0.323-20.35-8.231-23.774-18.656c-3.983-12.126,0.349-25.139,8.886-34.195c0.884-0.938-0.53-2.358-1.417-1.417
		c-8.462,8.976-13.107,21.704-10.041,33.94c2.803,11.186,11.658,20.446,23.303,22.067c5.686,0.792,11.667-0.177,16.619-3.158
		c5.35-3.22,9.175-8.565,11.814-14.124C580.278,496.639,580.905,483.199,573.254,473.182z"/>
	<rect x="365.047" y="575.728" style="fill:#493C41;" width="164.805" height="14.823"/>
	<rect x="391.565" y="575.728" style="fill:#0977A8;" width="7.455" height="19.267"/>
	<rect x="498.776" y="575.728" style="fill:#0977A8;" width="7.455" height="19.267"/>
	<g style="opacity:0;">
		
			<ellipse transform="matrix(0.9871 -0.1602 0.1602 0.9871 -29.0875 80.2109)" style="fill:#FFFFFF;stroke:#FFFFFF;stroke-width:2.0313;stroke-miterlimit:10;" cx="482.97" cy="220.523" rx="11.071" ry="11.071"/>
		<g>
			<path style="fill:#422B27;" d="M483.29,226.96c-3.111,0-5.643-2.531-5.643-5.642c0-3.111,2.531-5.643,5.643-5.643
				c3.111,0,5.643,2.531,5.643,5.643C488.933,224.429,486.402,226.96,483.29,226.96z"/>
			<path style="fill:#422B27;" d="M483.29,216.457c2.684,0,4.86,2.176,4.86,4.86c0,2.684-2.176,4.86-4.86,4.86
				c-2.684,0-4.86-2.176-4.86-4.86C478.43,218.633,480.606,216.457,483.29,216.457L483.29,216.457z M483.29,214.893
				c-3.543,0-6.424,2.882-6.424,6.424c0,3.542,2.882,6.424,6.424,6.424s6.424-2.882,6.424-6.424
				C489.715,217.775,486.833,214.893,483.29,214.893L483.29,214.893z"/>
		</g>
		<path style="fill:#FFFFFF;" d="M490.297,220.279c0,1.185-0.961,2.146-2.146,2.146c-1.185,0-2.146-0.961-2.146-2.146
			c0-1.185,0.961-2.146,2.146-2.146C489.336,218.133,490.297,219.094,490.297,220.279z"/>
		
			<ellipse transform="matrix(0.2298 -0.9732 0.9732 0.2298 104.7288 573.376)" style="fill:#FFFFFF;stroke:#FFFFFF;stroke-width:2.0313;stroke-miterlimit:10;" cx="414.611" cy="220.523" rx="11.071" ry="11.071"/>
		<g>
			<path style="fill:#422B27;" d="M414.29,226.96c-3.111,0-5.643-2.531-5.643-5.642c0-3.111,2.531-5.643,5.643-5.643
				c3.111,0,5.642,2.531,5.642,5.643C419.933,224.429,417.401,226.96,414.29,226.96z"/>
			<path style="fill:#422B27;" d="M414.29,216.457c2.684,0,4.86,2.176,4.86,4.86c0,2.684-2.176,4.86-4.86,4.86
				c-2.685,0-4.86-2.176-4.86-4.86C409.43,218.633,411.606,216.457,414.29,216.457L414.29,216.457z M414.29,214.893
				c-3.543,0-6.424,2.882-6.424,6.424c0,3.542,2.882,6.424,6.424,6.424c3.542,0,6.424-2.882,6.424-6.424
				C420.714,217.775,417.832,214.893,414.29,214.893L414.29,214.893z"/>
		</g>
		<path style="fill:#FFFFFF;" d="M407.284,220.279c0,1.185,0.961,2.146,2.146,2.146c1.185,0,2.146-0.961,2.146-2.146
			c0-1.185-0.961-2.146-2.146-2.146C408.245,218.133,407.284,219.094,407.284,220.279z"/>
	</g>
</g>
</svg>
